<svg width="64" height="50" viewBox="0 0 64 50" fill="none" xmlns="http://www.w3.org/2000/svg">
<path d="M2 37.8916C12.1823 37.8916 22.1882 35.8991 30.7172 31.5398C33.2965 30.2213 46.3064 25.8198 46.3064 25.0583" stroke="#5A3737" stroke-width="3" stroke-linecap="round"/>
<g clip-path="url(#clip0_68_32)">
<path d="M24.5038 33.8912C23.2281 30.0605 29.3194 23.0298 38.1091 18.1879C46.8989 13.3459 55.0585 12.5261 56.3342 16.3568C57.6099 20.1875 51.5186 27.2181 42.7289 32.0601C33.9391 36.9021 25.7795 37.7219 24.5038 33.8912Z" fill="#80EC6E"/>
<path d="M54.9644 16.4235L24.8328 33.7332" stroke="#B7FF9E"/>
<path d="M55.2988 14.9564C55.1984 14.903 55.0302 14.9272 54.9275 14.8504C54.8735 14.81 54.7959 14.8617 54.7577 14.8046C54.7209 14.7494 54.7582 14.6624 54.7042 14.5929C54.6466 14.5186 54.5359 14.5576 54.4162 14.4682C54.2682 14.3575 54.1116 14.3985 53.9782 14.3124C53.8887 14.2546 53.6779 14.1751 53.564 14.2174C53.3428 14.2994 53.1655 13.7584 52.9448 13.8403C52.8043 13.8925 52.5837 14.0168 52.4666 13.9597C52.1858 13.8228 51.6842 13.6957 51.3602 13.91C51.1574 14.0441 50.8926 14.1204 50.6749 14.2085C50.6254 14.2285 50.4333 14.3256 50.4754 14.2693C50.5849 14.1228 50.3569 13.793 50.1996 13.8245C49.8331 13.8979 49.399 14.102 49.0038 14.1516C48.5642 14.2067 47.8086 14.3741 47.4073 14.675C47.2036 14.8277 46.7685 14.5623 46.5198 14.5743C46.3838 14.5809 46.2566 14.7224 46.0938 14.7424C46.0158 14.7519 45.4242 14.707 45.4033 14.7699C45.3096 15.0513 44.7555 15.4631 44.4769 15.4319C44.2538 15.407 44.0647 15.1188 43.8799 15.0046C43.6973 14.8917 43.262 14.9246 43.0952 15.1477C43.0322 15.2319 43.0462 15.2764 43.0091 15.3504C42.8644 15.6393 42.4352 15.8133 42.1993 15.9804C42.1726 15.9993 41.6287 16.382 41.7308 16.2311C41.8134 16.1088 41.7855 16.1003 41.6896 16.0286C41.3461 15.7717 40.8056 16.6812 40.4299 16.7657C40.3149 16.7916 40.3938 16.6076 40.2946 16.8077C40.1098 17.1802 39.8589 17.52 39.6821 17.8999C39.4758 18.343 39.2385 17.6897 39.188 17.4637C39.1587 17.3326 38.9699 17.0498 38.8084 17.2658C38.5828 17.5676 38.5484 17.6664 38.2379 17.7455C37.7114 17.8798 37.6915 17.8235 37.3047 18.3499C37.0637 18.6779 36.7023 19.6522 36.2812 19.6262C36.0455 19.6117 35.9576 19.556 35.7789 19.4224C35.5713 19.2672 35.2447 20.2624 35.0425 20.155C34.8974 20.0779 34.5998 19.6501 34.4318 19.8748C34.0973 20.3222 33.9123 20.8477 33.5769 21.2962C33.445 21.4727 33.2618 21.3053 33.1422 21.2288C33.0101 21.1442 32.7779 21.214 32.6185 21.0948" stroke="#80EC6E" stroke-width="3" stroke-linecap="round"/>
<path d="M32.2957 21.7121C32.1585 21.8956 32.0212 22.0792 31.8839 22.2628C31.7336 22.4639 31.1496 23.4601 30.9336 23.4411" stroke="#80EC6E" stroke-width="3" stroke-linecap="round"/>
<path d="M30.9748 23.3861C30.7982 23.431 30.5089 23.401 30.3541 23.4848C30.3009 23.5137 30.1037 23.9855 30.0675 24.0433C30.028 24.1065 29.6908 24.7757 29.5772 24.7404C29.4463 24.6995 29.3295 24.6762 29.1877 24.6638C28.9851 24.646 29.0244 24.6041 28.8576 24.8272C28.6968 25.0423 28.5237 25.2537 28.3726 25.4758C28.0425 25.9613 28.2239 26.7173 27.6034 26.8755C27.4428 26.9164 27.3397 27.0428 27.2377 27.1792C27.001 27.4958 26.7173 27.7367 26.4251 27.993C26.3283 28.078 26.06 28.2402 25.9999 28.3763C25.954 28.4806 26.004 28.6302 25.9613 28.7577C25.7925 29.2619 25.5924 29.7717 25.4415 30.2769C25.3935 30.4377 25.2485 30.5694 25.1526 30.7097C24.8408 31.1658 24.7191 31.8382 24.4927 32.334C24.2286 32.9122 23.7448 33.5745 23.5862 34.1748C23.5453 34.3293 23.6908 34.2752 23.7706 34.2268" stroke="#80EC6E" stroke-width="3" stroke-linecap="round"/>
<path d="M24.072 34.1946C24.5842 34.5775 25.249 34.6688 25.4469 35.3943C25.6352 36.084 26.3067 35.5939 26.7683 35.8003C27.0494 35.926 27.2497 35.9872 27.507 36.1618C27.7706 36.3407 28.314 36.2253 28.6425 36.219C28.9947 36.2123 29.4713 36.2703 29.8083 36.1844C29.9847 36.1393 30.2081 36.1798 30.3841 36.1713C30.5268 36.1644 30.5153 36.2669 30.5725 36.3932C30.6063 36.4677 30.58 36.7076 30.6046 36.6747C30.6904 36.56 30.8805 36.5243 31.0066 36.5079C31.3356 36.4649 31.7716 36.1945 32.0849 36.3172C32.2883 36.3969 32.749 36.2189 32.9795 36.0941C33.0936 36.0323 33.3539 36.2127 33.5063 36.1827C33.7204 36.1404 33.934 36.0718 34.1483 36.014C34.602 35.8917 35.039 35.8543 35.4964 35.715C35.6642 35.6638 35.8693 35.2882 35.9839 35.135C36.0912 34.9915 36.253 34.4586 36.4492 34.6053C36.654 34.7584 37.0857 34.6469 37.3631 34.6398C38.2498 34.6171 38.4592 33.9649 39.2193 33.5425C39.722 33.2632 40.2746 33.1923 40.8009 33.0031C41.2234 32.8513 41.4623 32.7211 41.7441 32.3442C41.88 32.1624 42.1234 32.1081 42.3022 32.1127C42.6575 32.122 43.1956 31.9789 43.4493 31.6395C43.5796 31.4652 43.7075 31.2886 43.8405 31.1163C44.1388 30.7296 44.5091 30.7577 44.8961 30.7036C45.1449 30.6688 45.5037 30.6776 45.7417 30.5202C45.8641 30.4393 45.9203 30.3332 46.0317 30.2457C46.4256 29.9362 47.0223 29.8272 47.3311 29.4142C47.6142 29.0355 47.9017 28.8036 48.273 28.5253C48.4245 28.4117 48.5219 28.285 48.6354 28.1333C48.7268 28.011 48.7021 27.8586 48.7935 27.7363C49.0047 27.4538 48.994 27.3275 49.341 27.2823C49.6445 27.2426 49.9489 27.1683 50.2535 27.1536C50.4814 27.1427 50.2683 27.1652 50.2632 27.0274C50.2531 26.756 50.5135 26.3124 50.6602 26.0792C50.8119 25.8379 51.0323 25.506 51.2417 25.3168C51.2724 25.2891 51.512 25.1083 51.543 25.1509C51.5656 25.182 50.4313 26.2067 50.4018 26.2342" stroke="#80EC6E" stroke-width="3" stroke-linecap="round"/>
<path d="M51.7654 25.7083C51.5035 26.0586 52.3326 25.0424 52.5945 24.6921C52.906 24.2754 52.9496 23.7535 53.2597 23.3388C53.6282 22.846 53.9004 22.3399 54.3305 21.9118C54.7175 21.5266 55.0686 21.2902 55.4071 20.8374C55.6349 20.5328 55.8029 19.991 55.8188 19.638C55.8283 19.426 55.9202 19.198 55.9769 18.9835C56.0458 18.7228 56.3861 18.4724 56.448 18.2195C56.5162 17.9409 56.3797 17.6232 56.3302 17.3779C56.289 17.1733 56.0593 17.0797 56.0437 16.9061C56.0221 16.6635 55.6569 15.8681 55.3481 16.281" stroke="#80EC6E" stroke-width="3" stroke-linecap="round"/>
<path d="M56.8565 17.323C56.8921 17.1761 56.8858 17.0561 56.8845 16.9147C56.8834 16.7935 56.976 16.679 57.0007 16.5532C57.0619 16.2421 57.2463 15.916 57.2708 15.6151C57.3004 15.2526 57.8019 14.5097 57.9947 14.2246C58.1894 13.9367 58.143 14.1303 57.9503 14.1913C57.7747 14.2469 57.5976 14.3688 57.4175 14.394C57.0912 14.4396 56.7238 14.4842 56.4081 14.5647C56.3491 14.5797 55.8682 14.6397 55.8696 14.6772C55.8765 14.8618 56.2229 14.6786 56.3003 14.6367C56.4119 14.5762 56.6648 14.524 56.7944 14.4909C56.9375 14.4545 57.0668 14.3522 57.22 14.3131C57.5296 14.2342 57.8752 13.9265 58.1808 13.9344C58.2632 13.9366 59.0052 13.371 58.7046 13.5533" stroke="#80EC6E" stroke-width="3" stroke-linecap="round"/>
<path d="M56.2737 15.5994C56.3733 15.6523 56.6668 15.6339 56.7941 15.645" stroke="#80EC6E" stroke-width="3" stroke-linecap="round"/>
<path d="M56.0433 14.0534C55.8758 13.9282 55.2668 13.862 55.047 13.9953" stroke="#80EC6E" stroke-width="3" stroke-linecap="round"/>
<path d="M54.4572 16.7311C54.6772 16.4914 55.1169 16.4929 55.3712 16.2554C55.503 16.1323 56.0601 15.8363 56.2169 15.8145C56.3352 15.7979 56.4495 15.6259 56.5758 15.5867C56.737 15.5368 56.9187 15.5133 57.079 15.4287C57.3504 15.2856 57.6722 15.2027 57.9387 15.0412" stroke="#B7FF9E" stroke-linecap="round"/>
<path d="M54.8376 16.5003C54.5722 16.8014 54.1142 16.9823 53.7819 17.1707C53.3704 17.404 52.9715 17.5551 52.5616 17.8037C52.3101 17.9562 52.0611 18.0799 51.7868 18.1498C51.5285 18.2156 51.1215 18.7272 50.8999 18.7077" stroke="#B7FF9E" stroke-linecap="round"/>
<path d="M26.0976 32.8758C26.4567 32.3956 26.6186 32.0583 26.8158 31.5239C26.9865 31.0613 27.1624 30.3393 27.4582 29.9436C27.8242 29.4541 27.913 28.8599 28.2201 28.3477C28.5801 27.7475 28.813 27.1119 29.2338 26.549" stroke="#B7FF9E" stroke-linecap="round"/>
<path d="M26.3677 33.1636C26.7922 33.481 27.1979 33.3586 27.695 33.4692C28.249 33.5923 28.7919 33.6434 29.3862 33.6175C29.937 33.5934 30.4547 33.6413 30.9309 33.8279C31.2082 33.9366 31.593 33.8697 31.9027 33.8724C32.0815 33.8739 32.4072 33.9561 32.5744 33.8547" stroke="#B7FF9E" stroke-linecap="round"/>
<path d="M40.3606 37.8789C41.0682 36.9324 41.7272 35.9582 42.4343 35.0124C43.0795 34.1495 43.691 33.1695 44.4309 32.3936C44.6861 32.1259 45.0039 31.8048 45.2992 31.5927C45.4588 31.4781 45.6538 31.448 45.7775 31.2825" stroke="#B7FF9E" stroke-linecap="round"/>
<path d="M31.814 29.6802C32.11 29.9014 32.5469 30.04 32.9117 30.1383C33.1914 30.2137 33.4054 30.4212 33.6838 30.4962C34.5452 30.7282 35.6284 30.3033 36.4618 30.6176C36.9165 30.789 37.3281 30.8344 37.8255 30.8692C38.1195 30.8898 38.4136 30.8376 38.671 30.9385C38.799 30.9886 39.2523 30.9225 39.4022 30.8413C39.4565 30.8118 39.9053 30.7499 39.8487 30.7076" stroke="#B7FF9E" stroke-linecap="round"/>
<path d="M38.5828 25.7259C38.9988 25.1695 39.221 24.6856 39.4277 24.0394C39.7149 23.1422 40.0323 22.2713 40.4538 21.4104C40.9561 20.3843 41.3371 19.4461 42.0319 18.5168" stroke="#B7FF9E" stroke-linecap="round"/>
<path d="M39.1378 25.5398C39.4346 25.7617 39.7209 26.0467 40.065 26.1949C40.641 26.443 41.3048 26.5435 41.9143 26.719C42.1558 26.7884 42.3471 26.9204 42.5827 26.9993C43.3561 27.2581 44.2493 27.2794 45.0668 27.416C45.2429 27.4454 45.453 27.4381 45.6499 27.4704C45.8342 27.5007 46.0266 27.5499 46.2209 27.5205C46.3275 27.5044 46.6697 27.5643 46.753 27.4938C46.8522 27.4099 46.943 27.2449 47.0208 27.1407" stroke="#B7FF9E" stroke-linecap="round"/>
<path d="M45.4849 21.8712C45.8408 21.3952 46.1706 20.9109 46.5043 20.4201C47.0364 19.6377 47.3819 18.7679 47.9071 17.9775C48.0732 17.7274 48.1946 17.4501 48.3584 17.1987C48.4949 16.9893 48.6754 16.8506 48.8259 16.661C48.9689 16.4807 49.3492 15.9274 49.5448 15.9775" stroke="#B7FF9E" stroke-linecap="round"/>
<path d="M46.132 21.8399C46.5236 22.1327 46.8599 22.4199 47.3696 22.5076C48.3021 22.668 49.2167 22.8928 50.1749 22.9737C50.6517 23.014 51.1196 22.9717 51.6104 22.8975C51.677 22.8874 51.7972 22.8504 51.8587 22.859C52.0742 22.889 52.2956 22.8986 52.5232 22.8406" stroke="#B7FF9E" stroke-linecap="round"/>
<path d="M51.1947 18.4989C52.1721 17.1916 52.7196 15.625 53.718 14.2896" stroke="#B7FF9E" stroke-linecap="round"/>
<path d="M51.496 18.4666C51.9871 18.8338 52.5496 19.1504 53.1977 19.219C53.5665 19.2581 54.0106 19.3073 54.3622 19.4075C54.5667 19.4659 54.7728 19.58 54.9904 19.448" stroke="#B7FF9E" stroke-linecap="round"/>
<path d="M58.2713 14.6889C58.1115 14.9027 57.9079 15.1093 57.8643 15.3672C57.8367 15.5305 57.5778 15.8875 57.4478 15.7903" stroke="#80EC6E" stroke-linecap="round"/>
<path d="M58.0177 14.8427C57.7272 15.2313 57.4686 15.6342 57.1078 15.3644C56.8425 15.1661 56.8842 15.4584 56.776 15.6744C56.6109 16.0038 56.5922 16.0092 56.3445 15.824C56.1478 15.677 55.9878 15.4597 55.8949 15.8742C55.8453 16.0956 55.8218 16.2783 55.8528 16.4867C55.8575 16.5182 55.8759 16.7062 55.8397 16.7154C55.7597 16.7358 55.933 16.142 55.9436 16.0872C55.9808 15.8947 56.0704 15.4474 56.2515 15.5828C56.3187 15.633 56.3371 15.7863 56.4287 15.7629C56.4994 15.7449 56.567 15.5394 56.6615 15.503C56.8154 15.4436 57.2587 15.5159 57.3326 15.2749C57.4477 14.8997 57.2171 14.9856 56.9456 15.0715C56.5948 15.1825 56.2337 15.2769 55.8768 15.3885C55.6691 15.4535 55.1663 15.7069 55.0303 15.8718C54.6762 16.3013 55.2663 17.0429 55.4716 16.3734C55.5377 16.158 55.4795 15.8401 55.3794 16.2186C55.3563 16.3063 55.1786 16.8053 55.4057 16.6676" stroke="#80EC6E" stroke-linecap="round"/>
</g>
<defs>
<clipPath id="clip0_68_32">
<rect width="27" height="42" fill="white" transform="translate(42.3472) rotate(36.7841)"/>
</clipPath>
</defs>
</svg>
