<svg width="94" height="94" viewBox="0 0 94 94" fill="none" xmlns="http://www.w3.org/2000/svg">
<path d="M29.435 7.164C31.0117 10.2685 33.3414 13.341 35.1618 16.3862C37.1837 19.7692 38.6461 23.5085 41.417 26.5441C43.3145 28.6231 44.8931 30.8461 47.0689 32.7266C48.1654 33.6742 49.0536 33.8217 49.8628 34.9962" stroke="#5A3737" stroke-width="3" stroke-linecap="round"/>
<g clip-path="url(#clip0_58_2)">
<path d="M39.2187 25.4569C33.963 28.3786 34.5035 40.9972 40.4258 53.6413C46.3481 66.2854 55.4097 74.167 60.6654 71.2453C65.9211 68.3237 65.3807 55.7051 59.4583 43.061C53.536 30.4169 44.4744 22.5353 39.2187 25.4569Z" fill="#80EC6E"/>
<path d="M59.0753 69.9966L39.463 25.9058" stroke="#B7FF9E"/>
<path d="M58.0567 71.8238C57.8837 71.7934 57.704 71.6232 57.5054 71.6154C57.401 71.6113 57.3574 71.4902 57.2558 71.5174C57.1578 71.5436 57.1185 71.667 56.9859 71.6935C56.8443 71.7218 56.7484 71.5856 56.5171 71.5765C56.231 71.5653 56.0815 71.3875 55.8369 71.3631C55.6728 71.3467 55.341 71.2486 55.2445 71.1064C55.0569 70.8299 54.318 71.2449 54.1309 70.9692C54.0117 70.7935 53.8659 70.4732 53.6691 70.4324C53.197 70.3344 52.4678 70.0361 52.2842 69.5325C52.1693 69.2172 51.9235 68.9093 51.7459 68.6296C51.7055 68.5659 51.5677 68.2989 51.5639 68.3942C51.5542 68.6419 50.9589 68.7919 50.7994 68.6234C50.4279 68.2311 50.1015 67.6433 49.6722 67.2513C49.1946 66.8152 48.4442 65.9893 48.2511 65.3282C48.1532 64.9928 47.3703 64.8968 47.0815 64.6702C46.9236 64.5463 46.9071 64.2883 46.7299 64.1274C46.6449 64.0502 45.8866 63.5883 45.9224 63.5043C46.0822 63.1284 45.8121 62.2195 45.4454 62.0125C45.1517 61.8467 44.6438 61.9862 44.3099 61.9471C43.9799 61.9084 43.4859 61.4994 43.5008 61.1217C43.5064 60.9791 43.5664 60.9446 43.5934 60.8349C43.6986 60.4073 43.3488 59.8554 43.2259 59.4771C43.2121 59.4342 42.9262 58.5646 42.9031 58.8109C42.8844 59.0103 42.8425 58.9952 42.657 58.9879C41.9931 58.9618 42.222 57.5425 41.8502 57.1305C41.7364 57.0043 41.6533 57.2654 41.7274 56.97C41.8654 56.4201 41.8918 55.8478 42.0467 55.2969C42.2271 54.6544 41.307 55.1358 41.0268 55.3294C40.8643 55.4418 40.362 55.5761 40.3764 55.2105C40.3965 54.6996 40.4508 54.5664 40.1525 54.2162C39.6466 53.6223 39.5681 53.6641 39.6113 52.7789C39.6382 52.2274 40.1464 50.8942 39.6125 50.5591C39.3138 50.3716 39.1536 50.3543 38.8081 50.3407C38.4069 50.3249 38.9775 48.9997 38.629 48.9384C38.3789 48.8944 37.6046 49.0872 37.6196 48.7068C37.6494 47.9496 37.9355 47.2389 37.9654 46.4798C37.9771 46.1811 37.5934 46.199 37.3748 46.1765C37.1333 46.1515 36.9205 45.8785 36.6123 45.8664" stroke="#80EC6E" stroke-width="3" stroke-linecap="round"/>
<path d="M36.8209 44.9409C36.8331 44.6302 36.8453 44.3195 36.8575 44.0088C36.8709 43.6684 37.1315 42.1206 36.8522 41.9546" stroke="#80EC6E" stroke-width="3" stroke-linecap="round"/>
<path d="M36.8486 42.0479C36.6789 41.8487 36.3002 41.6313 36.1946 41.4101C36.1582 41.334 36.3776 40.6693 36.3899 40.5776C36.4035 40.4771 36.6451 39.4848 36.4736 39.4242C36.2759 39.3543 36.1122 39.2784 35.9289 39.1693C35.6669 39.0137 35.6737 39.0915 35.6886 38.7138C35.7029 38.3498 35.6988 37.979 35.7317 37.616C35.8037 36.8224 36.7559 36.1853 36.1598 35.4855C36.0055 35.3043 36.0035 35.083 36.0126 34.8521C36.0337 34.3163 35.9246 33.8193 35.8202 33.2989C35.7856 33.1264 35.6188 32.7254 35.6783 32.5309C35.7238 32.3819 35.9293 32.2679 36.0014 32.0975C36.2865 31.4232 36.5392 30.7161 36.8467 30.0561C36.9447 29.8461 36.8972 29.5832 36.9174 29.3535C36.9831 28.6066 37.4881 27.7963 37.6953 27.0812C37.937 26.2473 37.9949 25.1361 38.3853 24.3697C38.4859 24.1725 38.6091 24.3544 38.6586 24.4738" stroke="#80EC6E" stroke-width="3" stroke-linecap="round"/>
<path d="M38.9914 24.767C39.9814 24.8059 40.873 25.2822 41.8156 24.6913C42.7119 24.1296 43.0477 25.2217 43.8056 25.4023C44.2671 25.5123 44.5682 25.6205 45.0484 25.6587C45.5402 25.6978 46.0848 26.2865 46.4756 26.5758C46.8945 26.8859 47.5263 27.2352 47.8501 27.6153C48.0196 27.8143 48.3287 27.9642 48.533 28.1245C48.6987 28.2545 48.7841 28.137 48.9757 28.0538C49.0889 28.0046 49.2897 27.7304 49.2875 27.786C49.2799 27.9802 49.4751 28.1813 49.6113 28.307C49.9671 28.6352 50.2315 29.2942 50.729 29.435C51.052 29.5264 51.436 30.1096 51.5933 30.4388C51.6711 30.6019 52.1606 30.6366 52.3155 30.7992C52.5332 31.0278 52.7246 31.2836 52.9276 31.5287C53.357 32.0474 53.8485 32.4627 54.2659 33.0025C54.4191 33.2005 54.3026 33.7711 54.2924 34.0305C54.2829 34.2735 53.9615 34.9719 54.3409 34.9868C54.7366 35.0023 55.1501 35.4909 55.4782 35.7369C56.5274 36.5237 56.1479 37.3883 56.6564 38.4855C56.9928 39.2112 57.5916 39.7611 58.0439 40.4124C58.407 40.9354 58.5693 41.2776 58.5442 41.9155C58.5321 42.2232 58.7735 42.4896 58.994 42.6386C59.4321 42.9346 59.9433 43.5478 59.9207 44.1222C59.9091 44.4172 59.8923 44.7126 59.8859 45.0077C59.8714 45.6702 60.3458 45.9595 60.7608 46.3492C61.0278 46.5998 61.4696 46.8994 61.6045 47.2693C61.6738 47.4594 61.6389 47.6192 61.6886 47.8069C61.8643 48.4706 62.4794 49.0984 62.4519 49.7975C62.4267 50.4384 62.549 50.9292 62.7276 51.5406C62.8005 51.7902 62.7954 52.007 62.7853 52.2639C62.7771 52.4708 62.5995 52.6095 62.5914 52.8164C62.5726 53.2946 62.4372 53.4178 62.8123 53.7639C63.1406 54.0667 63.4363 54.4066 63.7899 54.6841C64.0546 54.8917 63.819 54.6847 63.6792 54.8249C63.4038 55.101 63.2883 55.7906 63.2393 56.1614C63.1886 56.5451 63.133 57.083 63.2025 57.4618C63.2126 57.5172 63.3268 57.9131 63.4054 57.8951C63.463 57.8819 63.0865 55.8307 63.0775 55.7764" stroke="#80EC6E" stroke-width="3" stroke-linecap="round"/>
<path d="M64.2147 57.5016C64.238 56.9087 64.2541 58.6884 64.2308 59.2812C64.203 59.9866 63.7496 60.5718 63.722 61.2737C63.6892 62.1079 63.5273 62.8731 63.6317 63.6923C63.7257 64.4295 63.9206 64.9798 63.8904 65.7461C63.8702 66.2617 63.5477 66.9748 63.2245 67.3589C63.0305 67.5895 62.9204 67.9079 62.7809 68.1817C62.6113 68.5145 62.7795 69.0701 62.6091 69.3887C62.4214 69.7397 61.9484 69.9556 61.6507 70.1705C61.4026 70.3496 61.0342 70.2502 60.8471 70.4189C60.5858 70.6548 59.3733 71.1752 59.4008 70.4762" stroke="#80EC6E" stroke-width="3" stroke-linecap="round"/>
<path d="M62.2332 70.6809C62.1338 70.8658 62.0098 70.9863 61.8711 71.1335C61.7523 71.2596 61.7531 71.4595 61.6609 71.6128C61.4331 71.9918 61.3397 72.4927 61.0775 72.8295C60.7617 73.2353 60.6472 74.4464 60.6035 74.9115C60.5595 75.381 60.6913 75.1379 60.5176 74.9081C60.3593 74.6987 60.2637 74.4183 60.0706 74.237C59.7207 73.9084 59.3201 73.5455 59.0167 73.1893C58.9601 73.1228 58.4374 72.646 58.4754 72.6079C58.6627 72.42 58.9036 72.9104 58.9564 73.021C59.0326 73.1805 59.2874 73.4529 59.4118 73.599C59.5493 73.7605 59.6064 73.9791 59.7535 74.1519C60.051 74.5012 60.1702 75.1214 60.547 75.376C60.6485 75.4446 60.9964 76.6766 60.81 76.2266" stroke="#80EC6E" stroke-width="3" stroke-linecap="round"/>
<path d="M59.8578 71.988C60.0295 72.0182 60.3661 72.2901 60.5306 72.3879" stroke="#80EC6E" stroke-width="3" stroke-linecap="round"/>
<path d="M58.0803 73.4118C57.7567 73.3991 56.9567 72.9444 56.8205 72.6154" stroke="#80EC6E" stroke-width="3" stroke-linecap="round"/>
<path d="M58.7609 69.2374C58.7942 69.6783 59.3269 70.055 59.4037 70.523C59.4436 70.7656 59.8296 71.5556 59.9977 71.7134C60.1246 71.8326 60.0958 72.1115 60.2105 72.2612C60.3568 72.4523 60.5534 72.6332 60.6651 72.86C60.8541 73.2437 61.1626 73.6076 61.3277 74.0063" stroke="#B7FF9E" stroke-linecap="round"/>
<path d="M58.9967 69.8068C58.9681 69.2625 58.5902 68.6786 58.3715 68.195C58.1006 67.5961 57.7653 67.0943 57.5113 66.4807C57.3554 66.1043 57.1745 65.7602 56.911 65.4509C56.6628 65.1596 56.6672 64.2726 56.3806 64.1022" stroke="#B7FF9E" stroke-linecap="round"/>
<path d="M40.1595 27.8938C40.1276 28.7067 39.996 29.2 39.716 29.9303C39.4736 30.5625 38.9859 31.4714 38.9596 32.1412C38.927 32.9697 38.4581 33.6696 38.3324 34.4714C38.1851 35.4109 37.8501 36.2782 37.8126 37.231" stroke="#B7FF9E" stroke-linecap="round"/>
<path d="M40.7648 27.8243C41.5853 27.8565 41.9566 28.3341 42.6644 28.6459C43.453 28.9933 44.1583 29.4068 44.8511 29.9455C45.4931 30.4447 46.1649 30.8398 46.9211 31.0539C47.3613 31.1786 47.7614 31.5798 48.1381 31.8435C48.3556 31.9956 48.8287 32.1898 48.9324 32.4401" stroke="#B7FF9E" stroke-linecap="round"/>
<path d="M43.5764 35.1236C43.5134 36.7255 43.3648 38.3149 43.3018 39.9158C43.2444 41.3764 43.0326 42.9308 43.174 44.3817C43.2228 44.8822 43.2953 45.4925 43.4464 45.9692C43.528 46.2268 43.7344 46.4262 43.7234 46.7062" stroke="#B7FF9E" stroke-linecap="round"/>
<path d="M43.9657 36.1659C44.5378 36.1884 45.2001 36.419 45.7359 36.6297C46.1469 36.7914 46.6067 36.7577 47.0156 36.9186C48.2812 37.4164 49.1775 38.7944 50.4891 39.1818C51.2046 39.3931 51.7459 39.6996 52.3805 40.0912C52.7554 40.3226 53.0602 40.6304 53.4689 40.746C53.6721 40.8036 54.1555 41.2631 54.2578 41.4773C54.2949 41.5549 54.777 42.006 54.6675 42.0017" stroke="#B7FF9E" stroke-linecap="round"/>
<path d="M48.3076 46.1396C48.2705 47.0813 48.0697 47.7802 47.6929 48.6362C47.1698 49.8246 46.7087 51.0116 46.383 52.2776C45.9948 53.7865 45.5452 55.0988 45.4833 56.6717" stroke="#B7FF9E" stroke-linecap="round"/>
<path d="M48.7975 46.8123C49.3713 46.8349 49.9936 46.7823 50.5529 46.9229C51.4893 47.1582 52.3886 47.6238 53.295 47.9643C53.654 48.0992 54.0132 48.1254 54.3742 48.2453C55.5595 48.6393 56.6591 49.3855 57.779 49.9456C58.0203 50.0663 58.2669 50.2549 58.5361 50.3903C58.7881 50.5171 59.0683 50.6312 59.2745 50.8291C59.3876 50.9378 59.859 51.1694 59.8913 51.315C59.9297 51.4883 59.8794 51.7397 59.8724 51.9159" stroke="#B7FF9E" stroke-linecap="round"/>
<path d="M52.9072 56.1233C52.8755 56.9291 52.8043 57.7211 52.7315 58.523C52.6155 59.802 52.1894 61.012 52.0573 62.2933C52.0155 62.6984 51.8932 63.094 51.8472 63.4987C51.8091 63.8358 51.8927 64.1367 51.8906 64.4651C51.8885 64.7773 51.8114 65.6851 52.0963 65.801" stroke="#B7FF9E" stroke-linecap="round"/>
<path d="M53.6587 56.7131C54.4155 56.7428 55.1003 56.7308 55.8009 57.0774C57.0829 57.7115 58.4057 58.2628 59.6416 59.0023C60.2567 59.3704 60.7809 59.8174 61.3018 60.3176C61.3725 60.3855 61.4817 60.5277 61.5643 60.5717C61.8538 60.7255 62.1306 60.906 62.3492 61.1627" stroke="#B7FF9E" stroke-linecap="round"/>
<path d="M56.5342 64.5751C56.4472 66.7879 55.5893 68.9028 55.5005 71.1631" stroke="#B7FF9E" stroke-linecap="round"/>
<path d="M56.867 64.8682C57.8162 64.9056 58.8026 65.0574 59.6521 65.5431C60.1355 65.8194 60.7197 66.15 61.2416 66.3473C61.5453 66.4621 61.9048 66.5197 62.0397 66.8455" stroke="#B7FF9E" stroke-linecap="round"/>
<path d="M61.388 74.6622C61.4022 74.3004 61.3566 73.9084 61.554 73.6003C61.6791 73.4051 61.7126 72.8078 61.4613 72.7979" stroke="#80EC6E" stroke-linecap="round"/>
<path d="M61.2308 74.2826C61.2566 73.625 61.335 72.9797 60.6375 72.9522C60.1247 72.9321 60.4585 72.6612 60.5373 72.3414C60.6573 71.8539 60.6399 71.832 60.1611 71.8132C59.7809 71.7982 59.377 71.8885 59.6667 71.3736C59.8215 71.0987 59.9703 70.8867 60.2099 70.6948C60.2461 70.6657 60.4506 70.4843 60.4158 70.4435C60.3389 70.3532 59.9725 71.1255 59.9321 71.1921C59.7904 71.4261 59.4648 71.9725 59.8148 71.9863C59.9447 71.9914 60.1156 71.8465 60.2036 71.9497C60.2716 72.0295 60.1539 72.3032 60.2328 72.4228C60.3611 72.6175 60.9667 72.9231 60.8223 73.2396C60.5974 73.7323 60.4022 73.4438 60.1575 73.1201C59.8413 72.7017 59.4967 72.2919 59.1739 71.8677C58.9861 71.6208 58.6243 70.9222 58.62 70.6322C58.6088 69.8768 60.0407 69.6065 59.6395 70.4856C59.5104 70.7685 59.1318 71.0519 59.378 70.5687C59.4351 70.4568 59.7044 69.7803 59.8451 70.1202" stroke="#80EC6E" stroke-linecap="round"/>
</g>
<defs>
<clipPath id="clip0_58_2">
<rect width="41.9713" height="57.4659" fill="white" transform="translate(69.7825 77.8865) rotate(-177.748)"/>
</clipPath>
</defs>
</svg>
