<svg width="62" height="63" viewBox="0 0 62 63" fill="none" xmlns="http://www.w3.org/2000/svg">
<g clip-path="url(#clip0_70_57)">
<path d="M31 60.8912C48.1208 60.8912 62 47.2603 62 30.4456C62 13.631 48.1208 0 31 0C13.8792 0 0 13.631 0 30.4456C0 47.2603 13.8792 60.8912 31 60.8912Z" fill="#B7FFAB"/>
<path d="M28.4636 49.293C28.5194 49.7116 38.6085 50.4789 39.1727 50.611" stroke="#B7FFAB" stroke-width="3" stroke-linecap="round"/>
<path d="M41.7091 49.0292C33.8565 49.0292 25.0148 50.0333 17.504 47.5942C17.0852 47.4582 11.6567 46.1296 13.95 46.1296C14.6993 46.1296 15.4721 46.4634 16.1576 46.7009C19.1801 47.7479 22.0896 49.0524 25.1444 50.0251C30.1689 51.6249 35.0793 53.3354 40.3 54.3012C41.5781 54.5376 45.47 54.8284 44.1671 54.8284C41.5053 54.8284 39.0056 54.2081 36.4797 53.4519C33.9306 52.6885 31.4061 51.8518 28.8706 51.0502C28.0153 50.7798 28.2537 50.8744 28.6358 50.8744C30.5826 50.8744 32.5292 50.8744 34.4757 50.8744C36.3858 50.8744 30.6556 50.8744 28.7455 50.8744" stroke="#B7FFAB" stroke-width="3" stroke-linecap="round"/>
<path d="M58.9 40.4624C58.9 46.4398 55.9606 52.1722 50.7284 56.399C45.4959 60.6256 38.3994 63.0001 31 63.0001C23.6005 63.0001 16.504 60.6256 11.2717 56.399C6.03945 52.1722 3.10001 46.4398 3.10001 40.4624H31H58.9Z" fill="#714242"/>
<path d="M29.8727 40.5941C29.8727 35.6405 32.5847 32.6255 34.9455 28.7614C36.6265 26.0099 40.9784 25.761 43.4 24.251" stroke="#42C06D" stroke-width="3" stroke-linecap="round"/>
<path d="M29.3091 40.5941C29.3091 37.602 27.6504 33.4835 23.9545 32.7154C22.3799 32.388 20.1846 32.1589 18.6 32.1589C16.4746 32.1589 16.1809 33.7405 14.0909 33.7405" stroke="#42C06D" stroke-width="3" stroke-linecap="round"/>
<path d="M41.7091 24.251C41.9351 22.5593 46.19 19.6008 47.9091 19.5062C49.8708 19.3983 51.5536 18.979 53.5455 18.979C55.3671 18.979 56.0272 19.876 57.4909 20.5606" stroke="#42C06D" stroke-width="3" stroke-linecap="round"/>
<path d="M41.7091 24.7782C46.7218 24.7782 54.7793 27.6424 56.9273 21.615" stroke="#42C06D" stroke-width="3" stroke-linecap="round"/>
<path d="M41.7091 24.7782C42.5827 24.6874 44.5448 23.5717 45.0909 22.933C45.8676 22.0251 47.8341 22.6254 48.4727 21.8786C49.2165 21.0092 54.0353 20.0334 55.2364 20.0334" stroke="#42C06D" stroke-width="3" stroke-linecap="round"/>
<path d="M45.0909 23.1967C46.956 23.1967 50.1636 23.4388 50.1636 21.0879" stroke="#42C06D" stroke-width="3" stroke-linecap="round"/>
<path d="M14.0909 33.7405C10.7586 33.7405 6.76364 36.6606 6.76364 40.0668" stroke="#42C06D" stroke-width="3" stroke-linecap="round"/>
<path d="M13.5273 34.7949C13.5273 37.3911 12.0738 39.3175 10.1455 41.1213" stroke="#42C06D" stroke-width="3" stroke-linecap="round"/>
<path d="M7.89091 41.1214C7.89091 38.1211 10.1521 35.5827 12.9636 34.2678" stroke="#42C06D" stroke-width="3" stroke-linecap="round"/>
</g>
<defs>
<clipPath id="clip0_70_57">
<rect width="62" height="63" fill="white"/>
</clipPath>
</defs>
</svg>
