<svg width="35" height="38" viewBox="0 0 35 38" fill="none" xmlns="http://www.w3.org/2000/svg">
<path d="M3.8558 30.4975C1.7263 27.1038 5.98461 19.0819 13.367 12.5802C20.7494 6.07843 28.4603 3.55887 30.5898 6.95257C32.7193 10.3463 28.461 18.3681 21.0786 24.8699C13.6962 31.3716 5.98531 33.8912 3.8558 30.4975Z" fill="#80EC6E"/>
<path d="M29.2788 7.30769L4.13761 30.2763" stroke="#B7FF9E"/>
<path d="M29.2603 5.8329C29.1506 5.80321 28.9933 5.86216 28.876 5.81054C28.8142 5.78337 28.7511 5.84934 28.7008 5.80276C28.6522 5.75781 28.6681 5.6666 28.5996 5.61158C28.5264 5.55282 28.4283 5.61368 28.2915 5.55352C28.1224 5.47914 27.9802 5.55165 27.831 5.49764C27.7309 5.4614 27.5081 5.4302 27.4077 5.49481C27.2126 5.62038 26.9146 5.1405 26.7201 5.26572C26.5961 5.34552 26.4116 5.51142 26.2848 5.48169C25.9809 5.4104 25.4654 5.39546 25.2017 5.66937C25.0365 5.84085 24.798 5.97014 24.6077 6.10072C24.5644 6.13041 24.401 6.26409 24.4287 6.20128C24.5005 6.03792 24.2028 5.77077 24.0577 5.8344C23.72 5.98253 23.3472 6.2702 22.976 6.40164C22.5631 6.5479 21.8704 6.86873 21.552 7.24193C21.3904 7.4313 20.9071 7.26996 20.669 7.33435C20.5389 7.36957 20.4487 7.53204 20.2957 7.5857C20.2224 7.61145 19.6389 7.69425 19.6333 7.75886C19.6084 8.04808 19.1678 8.55984 18.8908 8.58927C18.6689 8.61286 18.4184 8.37741 18.2129 8.3074C18.0097 8.23825 17.5958 8.36227 17.4863 8.61121C17.4449 8.70518 17.4689 8.7447 17.4502 8.82347C17.3775 9.13065 17.0024 9.38831 16.8129 9.59837C16.7915 9.62217 16.3541 10.104 16.4177 9.93786C16.4692 9.80328 16.4402 9.80107 16.3306 9.75287C15.938 9.5802 15.6268 10.5652 15.2827 10.726C15.1774 10.7753 15.2109 10.5824 15.1614 10.7949C15.0694 11.1907 14.9058 11.5691 14.8231 11.9702C14.7268 12.438 14.3445 11.8634 14.2428 11.6579C14.1838 11.5387 13.9351 11.3083 13.829 11.5493C13.681 11.8861 13.6707 11.9878 13.3885 12.1296C12.91 12.37 12.8775 12.3204 12.6258 12.9063C12.4689 13.2714 12.3463 14.2803 11.9324 14.3451C11.7008 14.3813 11.6027 14.3467 11.3985 14.2569C11.1612 14.1525 11.0772 15.1741 10.8562 15.1143C10.6977 15.0714 10.3097 14.7254 10.1994 14.9761C9.97986 15.4753 9.92334 16.0175 9.70325 16.5179C9.61666 16.7148 9.40012 16.5936 9.2665 16.5458C9.11881 16.493 8.91028 16.6092 8.72807 16.529" stroke="#80EC6E" stroke-width="3" stroke-linecap="round"/>
<path d="M8.55946 17.1882C8.4694 17.393 8.37931 17.5979 8.28922 17.8027C8.19056 18.0271 7.8575 19.1043 7.64391 19.1322" stroke="#80EC6E" stroke-width="3" stroke-linecap="round"/>
<path d="M7.67093 19.0707C7.51044 19.1513 7.22322 19.184 7.0929 19.2972C7.04805 19.3361 6.96724 19.8294 6.94568 19.8924C6.9221 19.9613 6.75178 20.6733 6.63347 20.6636C6.49717 20.6524 6.37865 20.6549 6.23844 20.6732C6.03805 20.6993 6.06634 20.6508 5.95688 20.8997C5.85133 21.1397 5.73303 21.3788 5.6386 21.6234C5.43217 22.1582 5.78427 22.8428 5.22032 23.1261C5.07429 23.1994 5.00395 23.3423 4.93703 23.4944C4.78168 23.8477 4.56317 24.1385 4.34002 24.4459C4.26604 24.5478 4.04405 24.7601 4.01769 24.9031C3.9975 25.0126 4.08083 25.1451 4.06926 25.2761C4.02347 25.7944 3.94869 26.3247 3.92045 26.8402C3.91144 27.0042 3.80178 27.161 3.74166 27.3157C3.54619 27.8184 3.58519 28.4876 3.48163 29.0101C3.36083 29.6194 3.04685 30.3559 3.03335 30.964C3.02988 31.1205 3.15811 31.0378 3.22411 30.9746" stroke="#80EC6E" stroke-width="3" stroke-linecap="round"/>
<path d="M3.50843 30.8796C4.09383 31.1371 4.75898 31.0831 5.12001 31.7351C5.46328 32.3549 5.99922 31.7432 6.49451 31.8425C6.79606 31.903 7.00426 31.9189 7.29423 32.0313C7.59124 32.1463 8.09057 31.9204 8.40731 31.8445C8.74682 31.7632 9.22184 31.7173 9.52821 31.5634C9.68855 31.4828 9.91435 31.474 10.0828 31.4285C10.2193 31.3916 10.2321 31.4921 10.317 31.6007C10.3671 31.6648 10.3977 31.8999 10.4138 31.8633C10.4701 31.7352 10.646 31.6607 10.7642 31.6182C11.0728 31.5071 11.432 31.1556 11.764 31.2064C11.9796 31.2394 12.3842 30.9711 12.5783 30.8027C12.6744 30.7193 12.9686 30.8366 13.1091 30.7754C13.3066 30.6895 13.4975 30.5784 13.6916 30.4775C14.1024 30.264 14.5169 30.1353 14.9273 29.9047C15.0779 29.8201 15.1889 29.4171 15.2641 29.2462C15.3345 29.086 15.3668 28.5418 15.5911 28.6404C15.8251 28.7433 16.2172 28.5449 16.4842 28.4791C17.3377 28.2688 17.3882 27.6003 18.0257 27.0345C18.4474 26.6604 18.9661 26.475 19.4316 26.1821C19.8053 25.947 20.0063 25.7716 20.1913 25.3511C20.2805 25.1483 20.5035 25.0446 20.6777 25.011C21.0239 24.9443 21.5117 24.693 21.6782 24.3143C21.7637 24.1199 21.8463 23.9237 21.9349 23.7306C22.1336 23.2972 22.4988 23.2452 22.8609 23.1112C23.0938 23.025 23.4433 22.9571 23.6371 22.7559C23.7367 22.6525 23.7664 22.539 23.8538 22.4317C24.1631 22.0518 24.7155 21.8206 24.9182 21.3598C25.104 20.9373 25.3283 20.6542 25.6229 20.309C25.7431 20.1681 25.8079 20.0262 25.8824 19.8569C25.9424 19.7204 25.8829 19.5799 25.9429 19.4435C26.0815 19.1283 26.0416 19.0097 26.3671 18.8927C26.6518 18.7902 26.9293 18.6544 27.2208 18.5755C27.439 18.5165 27.2378 18.5834 27.2007 18.4527C27.1276 18.1951 27.2763 17.7154 27.3639 17.4611C27.4545 17.198 27.5905 16.8336 27.7492 16.608C27.7724 16.575 27.9622 16.3511 28.0021 16.3852C28.0314 16.4102 27.172 17.6318 27.1498 17.6644" stroke="#80EC6E" stroke-width="3" stroke-linecap="round"/>
<path d="M28.3476 16.8712C28.1757 17.262 28.7415 16.1134 28.9134 15.7226C29.1179 15.2577 29.0383 14.7491 29.2418 14.2864C29.4837 13.7365 29.6292 13.1945 29.9458 12.6934C30.2307 12.2426 30.5156 11.9417 30.7377 11.4366C30.8872 11.0967 30.9234 10.5426 30.8564 10.2014C30.8162 9.99662 30.852 9.75889 30.8569 9.54167C30.8627 9.27758 31.1338 8.96562 31.1347 8.71056C31.1358 8.4295 30.9295 8.15459 30.8243 7.93035C30.7366 7.74342 30.4923 7.70269 30.4367 7.5399C30.3591 7.31246 29.8198 6.62907 29.6172 7.08984" stroke="#80EC6E" stroke-width="3" stroke-linecap="round"/>
<path d="M31.3211 7.76589C31.3213 7.61777 31.2873 7.5043 31.253 7.36927C31.2236 7.25364 31.2866 7.12433 31.2812 6.99872C31.2678 6.68811 31.3703 6.33685 31.3238 6.0438C31.2678 5.69065 31.5801 4.87327 31.7003 4.55946C31.8216 4.24268 31.8219 4.43779 31.6495 4.53711C31.4924 4.62759 31.3494 4.78196 31.1808 4.84431C30.8755 4.95731 30.5301 5.07808 30.2431 5.22225C30.1895 5.24919 29.7378 5.40888 29.7479 5.44443C29.7976 5.61962 30.0904 5.37069 30.1555 5.3141C30.2495 5.23248 30.4822 5.12875 30.6 5.06957C30.7301 5.00425 30.8314 4.87887 30.9707 4.80892C31.2522 4.66754 31.515 4.29966 31.8129 4.24229C31.8931 4.22684 32.4797 3.5279 32.2311 3.76625" stroke="#80EC6E" stroke-width="3" stroke-linecap="round"/>
<path d="M30.3544 6.24078C30.4633 6.27025 30.7432 6.19016 30.8691 6.17379" stroke="#80EC6E" stroke-width="3" stroke-linecap="round"/>
<path d="M29.7705 4.81068C29.5791 4.72651 28.9738 4.79278 28.7921 4.96703" stroke="#80EC6E" stroke-width="3" stroke-linecap="round"/>
<path d="M28.8593 7.70989C29.0165 7.43372 29.4427 7.34168 29.6335 7.06038C29.7324 6.91458 30.2029 6.51295 30.3496 6.45869C30.4604 6.41769 30.5309 6.22877 30.6441 6.1645C30.7885 6.08243 30.959 6.02133 31.0945 5.90632C31.324 5.71164 31.6163 5.56393 31.8366 5.35271" stroke="#B7FF9E" stroke-linecap="round"/>
<path d="M29.1739 7.40821C28.9871 7.75268 28.5858 8.02315 28.308 8.27402C27.9639 8.58479 27.6128 8.81418 27.2739 9.13918C27.0659 9.3386 26.8536 9.50985 26.6044 9.63508C26.3696 9.753 26.0948 10.329 25.8756 10.3575" stroke="#B7FF9E" stroke-linecap="round"/>
<path d="M5.16242 29.1871C5.39806 28.6513 5.47617 28.2941 5.54242 27.7409C5.59975 27.2621 5.60159 26.5339 5.79577 26.0924C6.03595 25.5463 5.98322 24.9589 6.16112 24.4035C6.36966 23.7527 6.44688 23.095 6.72307 22.467" stroke="#B7FF9E" stroke-linecap="round"/>
<path d="M5.49112 29.405C5.9763 29.6184 6.34061 29.415 6.84785 29.4151C7.41316 29.415 7.95077 29.3485 8.52035 29.1973C9.04814 29.0571 9.56065 28.9929 10.0654 29.0702C10.3593 29.1151 10.7163 28.9693 11.017 28.906C11.1904 28.8695 11.525 28.8788 11.6633 28.7463" stroke="#B7FF9E" stroke-linecap="round"/>
<path d="M9.40131 25.4782C9.86571 24.4222 10.2766 23.35 10.7407 22.2947C11.1641 21.3319 11.5276 20.2643 12.063 19.3646C12.2478 19.0542 12.4806 18.6794 12.7171 18.4137C12.8449 18.2701 13.0267 18.1998 13.1079 18.0153" stroke="#B7FF9E" stroke-linecap="round"/>
<path d="M9.95265 24.9141C10.2909 25.0628 10.7464 25.1025 11.1226 25.1189C11.4111 25.1316 11.6668 25.2846 11.9539 25.2971C12.8422 25.3359 13.7921 24.699 14.6726 24.8225C15.1529 24.8899 15.5622 24.8458 16.052 24.7733C16.3415 24.7304 16.6142 24.618 16.887 24.6597C17.0227 24.6805 17.4462 24.5208 17.5724 24.4112C17.6182 24.3715 18.0383 24.2168 17.9736 24.1884" stroke="#B7FF9E" stroke-linecap="round"/>
<path d="M15.585 19.6914C15.858 19.0706 15.9602 18.5604 16.0097 17.8982C16.0784 16.9788 16.1826 16.078 16.3898 15.1647C16.6368 14.0762 16.7868 13.0975 17.2428 12.0607" stroke="#B7FF9E" stroke-linecap="round"/>
<path d="M16.079 19.3953C16.4183 19.5445 16.7621 19.7563 17.1299 19.8249C17.7457 19.9398 18.412 19.8948 19.0432 19.9331C19.2933 19.9481 19.5094 20.0338 19.7559 20.0591C20.5654 20.1423 21.4354 19.9727 22.2589 19.9295C22.4364 19.9202 22.6381 19.8685 22.8364 19.8576C23.0219 19.8474 23.2197 19.8535 23.401 19.7841C23.5005 19.746 23.8459 19.7305 23.9101 19.6454C23.9866 19.544 24.036 19.3668 24.0871 19.2506" stroke="#B7FF9E" stroke-linecap="round"/>
<path d="M21.3697 14.5357C21.6033 14.0045 21.8097 13.4711 22.0184 12.9306C22.3511 12.0688 22.4827 11.1632 22.8068 10.2953C22.9093 10.0208 22.9622 9.72954 23.0621 9.45425C23.1454 9.22485 23.2879 9.05379 23.3893 8.84039C23.4858 8.63748 23.725 8.02726 23.9261 8.03356" stroke="#B7FF9E" stroke-linecap="round"/>
<path d="M21.9892 14.3681C22.4367 14.565 22.8294 14.7683 23.3435 14.7438C24.2841 14.6989 25.2223 14.7194 26.1691 14.5931C26.6403 14.5303 27.0836 14.3903 27.5416 14.2149C27.6037 14.1911 27.7114 14.1301 27.773 14.1252C27.9887 14.1082 28.2054 14.0703 28.4123 13.9664" stroke="#B7FF9E" stroke-linecap="round"/>
<path d="M26.1124 10.095C26.7538 8.63638 26.9185 7.02108 27.5737 5.53119" stroke="#B7FF9E" stroke-linecap="round"/>
<path d="M26.3967 10C26.9579 10.2469 27.5766 10.4301 28.2203 10.358C28.5866 10.317 29.0282 10.2696 29.392 10.2907C29.6037 10.303 29.8299 10.3684 30.0099 10.1958" stroke="#B7FF9E" stroke-linecap="round"/>
<path d="M32.0766 4.94494C31.9717 5.18344 31.8227 5.4244 31.8407 5.68044C31.8521 5.84257 31.6847 6.2392 31.5361 6.17387" stroke="#80EC6E" stroke-linecap="round"/>
<path d="M31.8669 5.14603C31.6762 5.57954 31.5198 6.02003 31.1074 5.83867C30.8042 5.70531 30.9128 5.97615 30.8584 6.20579C30.7754 6.55598 30.7585 6.56519 30.4754 6.44068C30.2506 6.34183 30.0449 6.168 30.0517 6.58434C30.0554 6.80668 30.0752 6.98647 30.154 7.17928C30.1659 7.20842 30.2276 7.38436 30.1947 7.40088C30.1219 7.43743 30.1512 6.83243 30.1487 6.77771C30.1398 6.58566 30.1221 6.13864 30.329 6.22965C30.4058 6.26342 30.4595 6.40613 30.5427 6.36436C30.607 6.33204 30.6245 6.12111 30.7076 6.06612C30.8427 5.97662 31.2889 5.95153 31.3043 5.70524C31.3281 5.32176 31.1249 5.45297 30.882 5.59287C30.5681 5.77365 30.2404 5.94079 29.9209 6.12348C29.7349 6.22981 29.3071 6.57921 29.2139 6.76584C28.9712 7.25207 29.7158 7.83613 29.7584 7.15195C29.772 6.93175 29.6414 6.64003 29.6329 7.02345C29.631 7.11226 29.5754 7.62745 29.7632 7.44739" stroke="#80EC6E" stroke-linecap="round"/>
</svg>
