<svg width="506" height="31" viewBox="0 0 506 31" fill="none" xmlns="http://www.w3.org/2000/svg">
<path d="M2 29.3034C7.75808 29.3034 13.5815 29.4566 18.0816 26.2571C21.6886 23.6926 26.225 22.3638 30.471 20.2294C35.8949 17.5028 41.0843 15.1517 47.2089 13.4238C52.4916 11.9334 57.881 8.30343 63.6597 8.30343C65.8577 8.30343 67.9236 6.85291 69.9364 6.09971C71.5828 5.48365 74.768 5.9701 76.5824 5.9701C79.4158 5.9701 80.7944 5.70608 83.2697 5.09509C85.6689 4.50284 87.6538 3.05343 90.2435 3.05343C102.06 3.05343 117.389 -0.103047 127.904 4.51176C132.464 6.51306 138.621 6.15945 143.37 8.30343C148.914 10.8059 155.042 11.7968 160.928 13.5534C180.504 19.3953 200.826 21.4935 221.316 25.0905C238.284 28.0691 255.572 22.4735 271.858 19.2571C276.425 18.3553 280.983 17.7104 285.519 16.7618C291.51 15.5092 297.54 13.2913 303.611 12.4192C311.407 11.2996 318.965 11.2201 326.913 11.2201" stroke="#5A3737" stroke-width="3" stroke-linecap="round"/>
<path d="M319 10.2302C325.313 10.2302 331.699 14.125 336.886 16.6469C343.331 19.7798 353.682 19.8716 361.091 19.5636C365.452 19.3822 369.19 15.5102 373.234 14.9293C376.608 14.4448 380.149 12.8211 383.244 11.5265C385.246 10.6894 387.961 9.06358 390.259 9.06358C393.473 9.06358 396.687 9.06358 399.9 9.06358C403.284 9.06358 407.457 8.68476 410.566 9.77652C412.901 10.5962 419.503 10.888 420.905 12.2719C423.894 15.2239 430.784 14.8312 434.771 16.0636C437.438 16.8878 439.453 18.4548 441.909 19.5636C442.671 19.9074 444.829 20.5826 445.273 21.0219C447.947 23.6624 463.383 21.8969 467.426 21.8969C473.525 21.8969 479.625 21.8969 485.723 21.8969C487.838 21.8969 502.089 23.1319 503.61 20.7302" stroke="#5A3737" stroke-width="3" stroke-linecap="round"/>
</svg>
