<svg width="44" height="47" viewBox="0 0 44 47" fill="none" xmlns="http://www.w3.org/2000/svg">
<path d="M2 2C2 3.80133 3.67698 6.86459 5.11768 8.28705C7.47109 10.6108 8.35132 13.7696 10.8613 16C13.5248 18.3673 14.6436 21.779 17.5072 24.1667C18.5196 25.0107 24.1532 31.7634 24.1532 30" stroke="#5A3737" stroke-width="3" stroke-linecap="round"/>
<path d="M12.2394 16.5627C15.6707 14.5951 23.9988 19.006 30.8407 26.4147C37.6826 33.8234 40.4475 41.4245 37.0162 43.3922C33.585 45.3598 25.2569 40.9489 18.415 33.5402C11.5731 26.1314 8.80817 18.5304 12.2394 16.5627Z" fill="#80EC6E"/>
<path d="M36.6212 42.1021L12.4728 16.8447" stroke="#B7FF9E"/>
<path d="M38.1336 42.1315C38.1615 42.0255 38.0973 41.8702 38.1475 41.7574C38.1739 41.698 38.1048 41.6344 38.1514 41.5868C38.1964 41.5409 38.2903 41.5593 38.3451 41.4943C38.4037 41.4248 38.339 41.3272 38.3974 41.1958C38.4698 41.0332 38.3921 40.8922 38.444 40.7484C38.4789 40.6519 38.5057 40.4356 38.437 40.3357C38.3037 40.1414 38.7889 39.8662 38.6559 39.6725C38.5712 39.549 38.3967 39.3636 38.4242 39.241C38.4902 38.9468 38.4935 38.4447 38.2063 38.1786C38.0265 38.0121 37.8884 37.7752 37.75 37.5855C37.7185 37.5422 37.5776 37.3787 37.6427 37.4077C37.8119 37.483 38.0789 37.2012 38.0103 37.0577C37.8504 36.7235 37.5466 36.3507 37.4031 35.9845C37.2435 35.5771 36.8981 34.8913 36.5079 34.5687C36.3098 34.405 36.464 33.9389 36.3924 33.7046C36.3532 33.5765 36.1845 33.4834 36.1258 33.3325C36.0978 33.2602 35.9992 32.6885 35.9327 32.6809C35.6355 32.6473 35.1002 32.2012 35.0635 31.9301C35.0342 31.7129 35.2698 31.4762 35.3367 31.278C35.403 31.0821 35.2661 30.6744 35.0082 30.5597C34.9108 30.5163 34.8709 30.5384 34.7896 30.5176C34.4728 30.4368 34.1997 30.0627 33.9799 29.8712C33.955 29.8495 33.4504 29.4074 33.6224 29.4748C33.7616 29.5294 33.7632 29.5012 33.8101 29.3959C33.978 29.0185 32.9604 28.6834 32.7873 28.3426C32.7343 28.2383 32.933 28.2771 32.7138 28.2221C32.3057 28.1196 31.9138 27.9479 31.5004 27.8544C31.0183 27.7454 31.5987 27.391 31.8071 27.2985C31.928 27.2448 32.1586 27.0096 31.9089 26.8984C31.56 26.7432 31.4553 26.7299 31.3033 26.4502C31.0455 25.9757 31.0956 25.9457 30.4887 25.6813C30.1106 25.5166 29.0728 25.3646 28.9967 24.9588C28.9542 24.7318 28.9873 24.6372 29.0747 24.4409C29.1762 24.2129 28.1264 24.0981 28.1825 23.8846C28.2228 23.7314 28.5686 23.3641 28.3088 23.2484C27.7917 23.0183 27.2342 22.9457 26.7157 22.715C26.5117 22.6242 26.631 22.4169 26.6769 22.2882C26.7276 22.1458 26.6036 21.9387 26.6815 21.7636" stroke="#80EC6E" stroke-width="3" stroke-linecap="round"/>
<path d="M26.0015 21.5779C25.7893 21.4835 25.5771 21.3891 25.3649 21.2946C25.1324 21.1912 24.0196 20.8317 23.9861 20.6226" stroke="#80EC6E" stroke-width="3" stroke-linecap="round"/>
<path d="M24.0497 20.6509C23.9633 20.4918 23.9229 20.2106 23.8038 20.0799C23.7629 20.0349 23.255 19.9402 23.1898 19.9172C23.1186 19.892 22.3843 19.703 22.3915 19.5879C22.3998 19.4553 22.3944 19.3397 22.3724 19.2023C22.3409 19.006 22.3913 19.0352 22.1335 18.9205C21.8848 18.8098 21.6368 18.6868 21.3837 18.5868C20.8303 18.3683 20.1363 18.6897 19.8325 18.1305C19.7539 17.9857 19.6057 17.9126 19.448 17.8424C19.0821 17.6796 18.7787 17.4571 18.4581 17.2296C18.3519 17.1542 18.129 16.9309 17.9817 16.9005C17.8689 16.8773 17.7349 16.9544 17.6003 16.9388C17.0675 16.8775 16.5218 16.7876 15.9924 16.7434C15.8239 16.7293 15.6605 16.6174 15.5006 16.5538C14.9803 16.347 14.2947 16.3635 13.7564 16.2457C13.1286 16.1083 12.3657 15.7784 11.7416 15.7456C11.5811 15.7372 11.6688 15.865 11.7353 15.9313" stroke="#80EC6E" stroke-width="3" stroke-linecap="round"/>
<path d="M11.8393 16.2117C11.5889 16.7743 11.6599 17.4247 10.9996 17.7559C10.3717 18.0707 11.0118 18.613 10.9215 19.0929C10.8665 19.385 10.8551 19.5875 10.7466 19.8667C10.6355 20.1527 10.879 20.6469 10.9642 20.9583C11.0555 21.2919 11.1138 21.7568 11.2788 22.0604C11.3652 22.2194 11.3795 22.4399 11.4302 22.6056C11.4713 22.74 11.3684 22.7492 11.259 22.8285C11.1943 22.8753 10.954 22.8976 10.992 22.9144C11.1246 22.9735 11.2051 23.1474 11.2516 23.2641C11.3728 23.5686 11.7417 23.9301 11.6973 24.2523C11.6686 24.4615 11.9531 24.8648 12.1305 25.0594C12.2183 25.1559 12.1049 25.439 12.1709 25.5781C12.2637 25.7735 12.382 25.9631 12.4901 26.1556C12.7187 26.5632 12.8604 26.9715 13.1065 27.3792C13.1968 27.5288 13.6128 27.65 13.7899 27.7288C13.9558 27.8027 14.5149 27.8517 14.4189 28.0673C14.3189 28.2922 14.5316 28.6809 14.6053 28.9434C14.8409 29.7826 15.5279 29.8533 16.1231 30.4933C16.5167 30.9165 16.719 31.4282 17.0304 31.8917C17.2803 32.2637 17.4649 32.4654 17.9006 32.6593C18.1107 32.7528 18.2224 32.9737 18.2609 33.1447C18.3373 33.4844 18.6066 33.9682 18.9988 34.1427C19.2004 34.2324 19.4035 34.3193 19.6036 34.4119C20.0529 34.6196 20.1147 34.9774 20.2606 35.3348C20.3546 35.5648 20.4323 35.9078 20.6433 36.1033C20.7516 36.2037 20.8687 36.2364 20.981 36.3251C21.3778 36.6389 21.6279 37.1851 22.1053 37.3975C22.543 37.5923 22.8386 37.8202 23.1996 38.1185C23.3469 38.2404 23.4941 38.3081 23.6695 38.3862C23.8108 38.4491 23.9536 38.3956 24.0949 38.4585C24.4215 38.6039 24.5421 38.5688 24.6699 38.8899C24.7816 39.1709 24.9274 39.4459 25.0152 39.7327C25.0808 39.9474 25.0074 39.7491 25.1407 39.717C25.4032 39.654 25.8988 39.8145 26.1616 39.9081C26.4336 40.005 26.8106 40.1493 27.0457 40.3113C27.0801 40.3349 27.3143 40.5274 27.2802 40.5652C27.2552 40.5928 25.982 39.7155 25.9481 39.6928" stroke="#80EC6E" stroke-width="3" stroke-linecap="round"/>
<path d="M26.7898 40.8865C26.3849 40.7063 27.5763 41.295 27.9812 41.4751C28.4628 41.6895 28.9826 41.6283 29.4621 41.8417C30.0317 42.0952 30.5911 42.2545 31.1125 42.5794C31.5816 42.8717 31.8969 43.1593 32.4202 43.3922C32.7723 43.5489 33.3416 43.602 33.6899 43.5477C33.8991 43.515 34.1438 43.5575 34.3667 43.5693C34.6377 43.5835 34.9641 43.8579 35.2257 43.8671C35.5141 43.8771 35.7912 43.6847 36.0188 43.5893C36.2084 43.5099 36.2445 43.2729 36.4102 43.2239C36.6417 43.1555 37.33 42.6515 36.8527 42.4391" stroke="#80EC6E" stroke-width="3" stroke-linecap="round"/>
<path d="M36.199 44.0791C36.351 44.0841 36.4666 44.0545 36.6043 44.0254C36.7222 44.0005 36.8563 44.066 36.985 44.0649C37.3033 44.0617 37.6661 44.173 37.9655 44.1371C38.3265 44.0939 39.1722 44.4248 39.4969 44.552C39.8247 44.6806 39.6245 44.6746 39.5186 44.5032C39.4222 44.3471 39.2605 44.2026 39.1926 44.0363C39.0695 43.7349 38.9375 43.3942 38.7829 43.1096C38.7541 43.0564 38.5797 42.6108 38.5435 42.6194C38.3649 42.6623 38.6271 42.9559 38.6867 43.0213C38.7726 43.1155 38.8845 43.3458 38.9479 43.4626C39.018 43.5915 39.149 43.6944 39.2239 43.8325C39.3755 44.1115 39.7591 44.3797 39.8249 44.672C39.8426 44.7507 40.5733 45.3453 40.323 45.0952" stroke="#80EC6E" stroke-width="3" stroke-linecap="round"/>
<path d="M37.7408 43.1855C37.7131 43.2907 37.8018 43.5663 37.8216 43.6895" stroke="#80EC6E" stroke-width="3" stroke-linecap="round"/>
<path d="M39.1941 42.6619C39.2759 42.478 39.1938 41.8855 39.0108 41.7027" stroke="#80EC6E" stroke-width="3" stroke-linecap="round"/>
<path d="M36.1989 41.6802C36.4859 41.8422 36.5903 42.2608 36.8833 42.456C37.0351 42.5572 37.4581 43.0289 37.5172 43.1737C37.5619 43.2831 37.7573 43.3579 37.8259 43.4704C37.9134 43.6139 37.9801 43.7821 38.1012 43.918C38.3063 44.148 38.4646 44.4379 38.6865 44.6595" stroke="#B7FF9E" stroke-linecap="round"/>
<path d="M36.5157 41.9967C36.158 41.8034 35.8712 41.4033 35.6073 41.1243C35.2805 40.7787 35.037 40.4289 34.6957 40.088C34.4863 39.8787 34.3056 39.6662 34.1714 39.419C34.0449 39.1863 33.4477 38.8997 33.4133 38.6851" stroke="#B7FF9E" stroke-linecap="round"/>
<path d="M13.6141 17.8791C14.1692 18.1262 14.5374 18.2138 15.1064 18.2962C15.5989 18.3675 16.3459 18.3927 16.8033 18.5963C17.3691 18.8481 17.9704 18.8156 18.5443 19.007C19.2167 19.2312 19.8931 19.3277 20.5438 19.6172" stroke="#B7FF9E" stroke-linecap="round"/>
<path d="M13.3983 18.1927C13.1908 18.659 13.4079 19.0208 13.4197 19.5155C13.433 20.0669 13.5139 20.5933 13.6823 21.1536C13.8384 21.6729 13.9163 22.1747 13.8489 22.6645C13.8096 22.9496 13.9675 23.3025 14.0394 23.5978C14.0809 23.7681 14.0792 24.0941 14.2185 24.2333" stroke="#B7FF9E" stroke-linecap="round"/>
<path d="M17.5178 22.1324C18.6118 22.6192 19.7212 23.0544 20.8145 23.5409C21.8121 23.9849 22.9156 24.3736 23.851 24.9248C24.1737 25.1149 24.5636 25.354 24.8417 25.5932C24.9921 25.7225 25.0683 25.9021 25.2596 25.9872" stroke="#B7FF9E" stroke-linecap="round"/>
<path d="M18.1094 22.6882C17.9647 23.0133 17.9346 23.4563 17.9266 23.8225C17.9204 24.1036 17.7694 24.348 17.7632 24.6275C17.7442 25.4927 18.4198 26.4395 18.3137 27.2942C18.2559 27.7605 18.3106 28.1611 18.3965 28.6411C18.4472 28.9248 18.5689 29.1943 18.5325 29.459C18.5144 29.5907 18.6881 30.0088 18.8034 30.1355C18.8453 30.1814 19.0137 30.5961 19.0414 30.534" stroke="#B7FF9E" stroke-linecap="round"/>
<path d="M23.5984 28.3491C24.2415 28.6353 24.7672 28.7513 25.4476 28.8209C26.3923 28.9174 27.3186 29.048 28.2603 29.2795C29.3827 29.5554 30.3901 29.7332 31.4642 30.2112" stroke="#B7FF9E" stroke-linecap="round"/>
<path d="M23.9135 28.8404C23.7684 29.1664 23.5593 29.495 23.4975 29.8515C23.3941 30.4483 23.4558 31.0995 23.4314 31.7139C23.4217 31.9572 23.3389 32.1653 23.3187 32.405C23.2524 33.1916 23.4467 34.0455 23.5101 34.8501C23.5239 35.0235 23.5816 35.2219 23.5975 35.4156C23.6124 35.5968 23.6108 35.7896 23.6861 35.9686C23.7276 36.0669 23.7514 36.4042 23.8403 36.4696C23.946 36.5474 24.129 36.6013 24.2493 36.6549" stroke="#B7FF9E" stroke-linecap="round"/>
<path d="M29.0221 34.1565C29.5724 34.4013 30.1243 34.6197 30.6837 34.8406C31.5754 35.1928 32.5075 35.3503 33.4053 35.6942C33.6893 35.803 33.9893 35.8639 34.274 35.9703C34.5112 36.0588 34.69 36.2033 34.9113 36.3091C35.1216 36.4098 35.7532 36.6626 35.7515 36.8586" stroke="#B7FF9E" stroke-linecap="round"/>
<path d="M29.2084 34.7659C29.017 35.196 28.8177 35.5725 28.8548 36.0746C28.9228 36.9932 28.9237 37.9076 29.0755 38.835C29.151 39.2967 29.3049 39.7334 29.4955 40.1857C29.5215 40.2471 29.5865 40.3541 29.593 40.4143C29.6155 40.6252 29.6595 40.8378 29.7709 41.0429" stroke="#B7FF9E" stroke-linecap="round"/>
<path d="M33.6881 38.9245C35.1993 39.597 36.86 39.8095 38.4036 40.4964" stroke="#B7FF9E" stroke-linecap="round"/>
<path d="M33.7921 39.2047C33.5521 39.7441 33.3787 40.3417 33.4677 40.9718C33.5183 41.3302 33.5773 41.7624 33.5641 42.1166C33.5564 42.3226 33.4947 42.5411 33.6759 42.7222" stroke="#B7FF9E" stroke-linecap="round"/>
<path d="M39.1104 44.9066C38.8633 44.7966 38.6126 44.6436 38.3504 44.6529C38.1844 44.6588 37.7736 44.4828 37.8371 44.34" stroke="#80EC6E" stroke-linecap="round"/>
<path d="M38.8992 44.6957C38.45 44.4959 37.9946 44.3291 38.1709 43.9328C38.3006 43.6413 38.0254 43.7385 37.7885 43.6781C37.4274 43.586 37.4175 43.5691 37.5386 43.297C37.6348 43.081 37.8083 42.886 37.3814 42.8792C37.1534 42.8756 36.9694 42.8892 36.7735 42.9598C36.7439 42.9705 36.5649 43.0249 36.5471 42.9924C36.5079 42.9202 37.1292 42.9683 37.1853 42.9675C37.3821 42.965 37.8402 42.9622 37.7517 43.1611C37.7188 43.2349 37.5737 43.2827 37.6185 43.3651C37.6531 43.4289 37.8699 43.4527 37.9283 43.5355C38.0232 43.6702 38.0594 44.1062 38.3124 44.129C38.7063 44.1646 38.5669 43.9622 38.4178 43.7208C38.225 43.4089 38.0459 43.084 37.851 42.7664C37.7376 42.5817 37.3692 42.1531 37.1756 42.0563C36.6711 41.804 36.0895 42.5114 36.7923 42.5748C37.0184 42.5953 37.3147 42.4773 36.9211 42.4567C36.83 42.4519 36.3002 42.3811 36.4893 42.57" stroke="#80EC6E" stroke-linecap="round"/>
</svg>
