<svg width="27" height="42" viewBox="0 0 27 42" fill="none" xmlns="http://www.w3.org/2000/svg">
<g clip-path="url(#clip0_59_4)">
<path d="M6.00336 37.828C2.68781 35.5239 3.35639 26.2456 7.49668 17.1043C11.637 7.96311 17.6811 2.42052 20.9966 4.72464C24.3122 7.02875 23.6436 16.307 19.5033 25.4483C15.363 34.5895 9.3189 40.1321 6.00336 37.828Z" fill="#80EC6E"/>
<path d="M19.9395 5.59833L6.1723 37.5045" stroke="#B7FF9E"/>
<path d="M19.3289 4.22302C19.2165 4.24042 19.0963 4.36055 18.968 4.36055C18.9005 4.36055 18.8694 4.44843 18.8046 4.42549C18.742 4.40336 18.7198 4.31132 18.635 4.28796C18.5443 4.26303 18.479 4.36055 18.3296 4.36055C18.1448 4.36055 18.0439 4.48717 17.8855 4.49807C17.7793 4.50538 17.5628 4.568 17.4969 4.66998C17.3689 4.86818 16.9029 4.54108 16.7752 4.73874C16.6939 4.86469 16.5917 5.09637 16.4638 5.12076C16.1569 5.17925 15.679 5.37782 15.5478 5.74343C15.4657 5.97233 15.2994 6.19195 15.1777 6.39289C15.15 6.43859 15.0544 6.63129 15.0544 6.561C15.0544 6.37819 14.6743 6.25047 14.5671 6.36995C14.3176 6.64815 14.0921 7.07163 13.8053 7.34794C13.4862 7.65537 12.9813 8.24188 12.84 8.72317C12.7683 8.96738 12.261 9.0154 12.069 9.17395C11.964 9.26066 11.9469 9.45021 11.8285 9.56361C11.7717 9.61799 11.2709 9.93625 11.2918 9.99914C11.3854 10.2806 11.1882 10.9422 10.9464 11.0841C10.7528 11.1977 10.4287 11.0802 10.2124 11.0993C9.99854 11.1183 9.66958 11.4053 9.66958 11.6838C9.66958 11.789 9.70738 11.8162 9.72201 11.8978C9.77911 12.2158 9.53949 12.6121 9.45064 12.8872C9.44058 12.9184 9.23415 13.5506 9.22551 13.3685C9.21849 13.2211 9.19105 13.231 9.07131 13.231C8.64241 13.231 8.75409 14.283 8.50382 14.5757C8.42724 14.6653 8.38026 14.4706 8.42056 14.6903C8.49562 15.0994 8.49818 15.5216 8.58404 15.9319C8.68413 16.4103 8.1029 16.0291 7.9271 15.8784C7.82509 15.7909 7.50463 15.6774 7.50463 15.9472C7.50463 16.324 7.53624 16.4236 7.33497 16.673C6.99369 17.0958 6.94406 17.0627 6.94946 17.7159C6.95284 18.1229 7.2468 19.1195 6.89398 19.3509C6.69654 19.4804 6.59281 19.4884 6.36969 19.4884C6.11049 19.4884 6.44485 20.4811 6.21854 20.5161C6.05615 20.5412 5.56166 20.3768 5.56166 20.6574C5.56166 21.216 5.72817 21.7477 5.72817 22.3077C5.72817 22.5281 5.48115 22.5037 5.33962 22.514C5.18317 22.5254 5.03903 22.7203 4.83998 22.7203" stroke="#80EC6E" stroke-width="3" stroke-linecap="round"/>
<path d="M4.95101 23.408C4.95101 23.6371 4.95101 23.8664 4.95101 24.0956C4.95101 24.3467 5.07983 25.4942 4.89551 25.6084" stroke="#80EC6E" stroke-width="3" stroke-linecap="round"/>
<path d="M4.89551 25.5397C4.78104 25.6814 4.53131 25.8306 4.45757 25.9905C4.43219 26.0454 4.5568 26.5413 4.56243 26.6093C4.56858 26.6836 4.69929 27.4215 4.5871 27.4612C4.45783 27.5069 4.35035 27.5582 4.22935 27.6331C4.05642 27.7402 4.06281 27.6831 4.06281 27.9616C4.06281 28.2302 4.05078 28.5032 4.06281 28.7715C4.08912 29.3581 4.68706 29.8549 4.28486 30.3531C4.18071 30.4821 4.17384 30.6451 4.17384 30.8153C4.17384 31.2106 4.09091 31.5735 4.01038 31.9537C3.98369 32.0798 3.86592 32.3704 3.89936 32.5153C3.92497 32.6263 4.0546 32.7163 4.09674 32.8439C4.26351 33.3488 4.40853 33.8769 4.59019 34.3719C4.64799 34.5294 4.61073 34.7217 4.61794 34.8915C4.6414 35.4435 4.9465 36.0549 5.06206 36.5876C5.19677 37.2088 5.20585 38.0289 5.4383 38.6047C5.49814 38.7529 5.58223 38.6225 5.61718 38.5359" stroke="#80EC6E" stroke-width="3" stroke-linecap="round"/>
<path d="M5.83922 38.3296C6.47873 38.3296 7.06585 38.0046 7.65882 38.4671C8.22258 38.9068 8.46691 38.1122 8.96027 38.001C9.26066 37.9334 9.45766 37.8625 9.76831 37.8482C10.0865 37.8337 10.4526 37.4159 10.712 37.2141C10.9901 36.9979 11.4064 36.7589 11.6249 36.4883C11.7393 36.3466 11.9424 36.2452 12.0783 36.133C12.1884 36.0421 12.2406 36.1311 12.362 36.1979C12.4337 36.2374 12.5563 36.4452 12.5563 36.4042C12.5563 36.2609 12.6873 36.1185 12.7784 36.0299C13.0161 35.7984 13.2034 35.3207 13.5278 35.2314C13.7384 35.1735 14.0008 34.7551 14.1106 34.517C14.165 34.3992 14.4816 34.3879 14.5856 34.2726C14.7318 34.1105 14.8618 33.9277 14.9988 33.753C15.289 33.3834 15.6165 33.0917 15.8994 32.7063C16.0032 32.5649 15.9426 32.1412 15.9426 31.9499C15.9426 31.7707 15.753 31.247 15.9981 31.247C16.2537 31.247 16.5327 30.8992 16.7506 30.7274C17.4473 30.1783 17.2244 29.5305 17.5802 28.7371C17.8155 28.2124 18.2157 27.8247 18.5239 27.358C18.7714 26.9835 18.8848 26.7361 18.8848 26.2655C18.8848 26.0385 19.0472 25.8493 19.1932 25.7459C19.4833 25.5406 19.8285 25.1038 19.8285 24.6801C19.8285 24.4625 19.8252 24.2444 19.8285 24.0268C19.8359 23.5385 20.1493 23.3392 20.4268 23.0641C20.6053 22.8873 20.8979 22.6795 20.9943 22.4109C21.0438 22.2729 21.0253 22.1542 21.0621 22.0174C21.1923 21.5337 21.6049 21.0891 21.6049 20.5734C21.6049 20.1006 21.6963 19.7427 21.8269 19.2975C21.8803 19.1157 21.8825 18.956 21.8825 18.7665C21.8825 18.6138 21.7714 18.5065 21.7714 18.3539C21.7714 18.0011 21.6872 17.9064 21.938 17.6624C22.1574 17.4489 22.3567 17.2071 22.5918 17.013C22.7678 16.8677 22.6106 17.0134 22.5239 16.9061C22.3534 16.6947 22.2963 16.1835 22.2741 15.9089C22.2512 15.6248 22.229 15.227 22.2834 14.9501C22.2914 14.9096 22.375 14.6213 22.4253 14.6368C22.4621 14.6482 22.1672 16.1481 22.16 16.1879" stroke="#80EC6E" stroke-width="3" stroke-linecap="round"/>
<path d="M22.9372 14.9502C22.9372 15.3875 22.9927 14.0772 22.9927 13.6398C22.9927 13.1196 22.7151 12.6754 22.7151 12.1576C22.7151 11.5422 22.6301 10.974 22.7182 10.3735C22.7975 9.83333 22.9372 9.43367 22.9372 8.86838C22.9372 8.48801 22.7473 7.9535 22.5486 7.66122C22.4293 7.48576 22.3664 7.24807 22.2834 7.04238C22.1825 6.79231 22.305 6.38801 22.2032 6.14844C22.091 5.88445 21.7915 5.71175 21.6049 5.54486C21.4494 5.40573 21.2093 5.4683 21.0929 5.33855C20.9303 5.15729 20.1615 4.73888 20.1615 5.25452" stroke="#80EC6E" stroke-width="3" stroke-linecap="round"/>
<path d="M21.9935 5.18572C21.9341 5.04673 21.8572 4.95437 21.7714 4.84191C21.698 4.74559 21.7036 4.59836 21.6481 4.48281C21.5107 4.19707 21.4632 3.82541 21.3027 3.56979C21.1092 3.26172 21.0661 2.36644 21.0498 2.02261C21.0333 1.67554 21.1121 1.85839 20.9943 2.02261C20.8869 2.17223 20.8181 2.376 20.6889 2.50395C20.4549 2.73584 20.1874 2.99153 19.9827 3.24507C19.9445 3.29244 19.5952 3.62849 19.6188 3.65765C19.7348 3.80142 19.9026 3.44725 19.9395 3.36731C19.9927 3.25203 20.1639 3.0588 20.2479 2.95474C20.3407 2.83983 20.383 2.68046 20.4823 2.55744C20.683 2.30879 20.7756 1.85541 21.0251 1.6788C21.0923 1.63123 21.3479 0.733903 21.2163 1.05993" stroke="#80EC6E" stroke-width="3" stroke-linecap="round"/>
<path d="M20.4946 4.15426C20.6062 4.13699 20.8302 3.94646 20.9387 3.87921" stroke="#80EC6E" stroke-width="3" stroke-linecap="round"/>
<path d="M19.3844 3.05408C19.1753 3.05408 18.6479 3.36583 18.5517 3.60418" stroke="#80EC6E" stroke-width="3" stroke-linecap="round"/>
<path d="M19.7175 6.14844C19.7502 5.82465 20.1032 5.56259 20.1646 5.22013C20.1965 5.04261 20.4655 4.47195 20.5779 4.36058C20.6628 4.27646 20.6513 4.07022 20.729 3.96329C20.8282 3.82675 20.9597 3.69917 21.0374 3.53543C21.1691 3.25826 21.3772 2.99919 21.4939 2.71027" stroke="#B7FF9E" stroke-linecap="round"/>
<path d="M19.884 5.73584C19.8517 6.13589 19.5932 6.55501 19.4399 6.90482C19.25 7.33814 19.021 7.69801 18.8416 8.14255C18.7315 8.41533 18.6061 8.66346 18.4283 8.88368C18.2609 9.09109 18.2412 9.74452 18.0521 9.86162" stroke="#B7FF9E" stroke-linecap="round"/>
<path d="M6.6719 36.0604C6.6719 35.4608 6.59959 35.0937 6.43754 34.5476C6.29724 34.075 6.00578 33.3914 6.00578 32.8973C6.00578 32.2861 5.72106 31.7571 5.66033 31.163C5.5892 30.4667 5.39514 29.8181 5.39514 29.1154" stroke="#B7FF9E" stroke-linecap="round"/>
<path d="M7.0605 36.1292C7.59054 36.1292 7.84213 35.7882 8.30648 35.5791C8.82395 35.3459 9.28928 35.0618 9.7498 34.6851C10.1765 34.336 10.6198 34.0645 11.113 33.9287C11.4 33.8497 11.6682 33.5657 11.9179 33.3824C12.062 33.2766 12.372 33.1474 12.4452 32.9661" stroke="#B7FF9E" stroke-linecap="round"/>
<path d="M21.0908 31.5267C21.0908 30.345 21.0353 29.1701 21.0353 27.9892C21.0353 26.9117 20.9382 25.7607 21.0661 24.6962C21.1103 24.329 21.1725 23.8815 21.282 23.5348C21.3412 23.3474 21.4794 23.2066 21.4794 23" stroke="#B7FF9E" stroke-linecap="round"/>
<path d="M9.33655 30.078C9.70606 30.078 10.139 29.9274 10.49 29.7877C10.7592 29.6805 11.0548 29.7186 11.3227 29.6119C12.1515 29.2819 12.7646 28.293 13.6203 28.0457C14.0871 27.9108 14.4439 27.7006 14.8632 27.4306C15.1109 27.2711 15.3152 27.0532 15.5817 26.9798C15.7143 26.9433 16.0377 26.6189 16.1091 26.4641C16.135 26.408 16.4574 26.0897 16.3867 26.0897" stroke="#B7FF9E" stroke-linecap="round"/>
<path d="M12.3898 22.8579C12.3898 22.1632 12.278 21.6426 12.0567 21.0013C11.7494 20.1108 11.4821 19.2231 11.3042 18.2813C11.092 17.1587 10.8354 16.1791 10.8354 15.0189" stroke="#B7FF9E" stroke-linecap="round"/>
<path d="M12.7228 22.3765C13.0934 22.3765 13.4934 22.4333 13.8578 22.346C14.4676 22.1998 15.0595 21.8828 15.6527 21.6584C15.8876 21.5694 16.12 21.5605 16.3558 21.4826C17.1303 21.2268 17.8584 20.709 18.5948 20.3289C18.7536 20.247 18.9174 20.1153 19.0945 20.0233C19.2602 19.9372 19.4438 19.8614 19.5818 19.7215C19.6575 19.6447 19.9674 19.4878 19.9919 19.3815C20.0211 19.255 19.995 19.0684 19.995 18.9384" stroke="#B7FF9E" stroke-linecap="round"/>
<path d="M15.6095 15.6377C15.6095 15.0434 15.5837 14.458 15.5571 13.8652C15.5147 12.9198 15.2706 12.0163 15.2178 11.0688C15.2011 10.7691 15.1323 10.4743 15.113 10.1749C15.0969 9.92544 15.1584 9.70627 15.1654 9.46433C15.172 9.23427 15.1453 8.56343 15.3319 8.48639" stroke="#B7FF9E" stroke-linecap="round"/>
<path d="M16.1091 15.2252C16.598 15.2252 17.0393 15.2539 17.5 15.0189C18.3429 14.5889 19.21 14.2213 20.0259 13.7124C20.4319 13.4591 20.7813 13.1451 21.13 12.7917C21.1773 12.7438 21.2513 12.6421 21.3058 12.6122C21.4963 12.5072 21.6794 12.3823 21.8269 12.1996" stroke="#B7FF9E" stroke-linecap="round"/>
<path d="M18.1631 9.51781C18.1631 7.8855 17.6635 6.30293 17.6635 4.63562" stroke="#B7FF9E" stroke-linecap="round"/>
<path d="M18.3851 9.31148C18.9983 9.31148 19.6383 9.2282 20.1986 8.89507C20.5173 8.70558 20.9025 8.479 21.244 8.3488C21.4428 8.27303 21.6761 8.24103 21.7714 8.005" stroke="#B7FF9E" stroke-linecap="round"/>
<path d="M21.5494 2.22888C21.5494 2.49578 21.51 2.78317 21.6295 3.01584C21.7052 3.16318 21.7117 3.60414 21.5494 3.60414" stroke="#80EC6E" stroke-linecap="round"/>
<path d="M21.4383 2.50397C21.4383 2.9891 21.4725 3.46665 21.022 3.46665C20.6907 3.46665 20.8992 3.67584 20.9418 3.91361C21.0069 4.2762 20.9951 4.29181 20.6858 4.29181C20.4403 4.29181 20.182 4.21363 20.3558 4.60124C20.4487 4.80823 20.5392 4.96863 20.6889 5.11697C20.7115 5.13938 20.8388 5.27892 20.8154 5.30798C20.7635 5.37226 20.5468 4.79286 20.5224 4.74259C20.4369 4.56618 20.2408 4.15428 20.4669 4.15428C20.5508 4.15428 20.6574 4.26597 20.7167 4.19248C20.7626 4.13566 20.6936 3.93066 20.7475 3.84485C20.8352 3.70518 21.2336 3.49763 21.1485 3.26036C21.0159 2.89094 20.8827 3.09779 20.7167 3.32912C20.5021 3.62811 20.2695 3.91995 20.0505 4.22304C19.9231 4.39944 19.6721 4.90354 19.6619 5.11697C19.6355 5.67299 20.5522 5.9136 20.3158 5.25449C20.2396 5.04237 20.0027 4.82266 20.1492 5.18573C20.1832 5.26981 20.3397 5.77583 20.4391 5.52953" stroke="#80EC6E" stroke-linecap="round"/>
</g>
<defs>
<clipPath id="clip0_59_4">
<rect width="27" height="42" fill="white"/>
</clipPath>
</defs>
</svg>
