<svg width="34" height="37" viewBox="0 0 34 37" fill="none" xmlns="http://www.w3.org/2000/svg">
<g clip-path="url(#clip0_61_3)">
<path d="M7.16476 5.39303C3.50968 7.5039 4.79492 14.8795 10.0354 21.8668C15.2759 28.8541 22.4872 32.8073 26.1423 30.6964C29.7974 28.5855 28.5122 21.21 23.2716 14.2226C18.0311 7.2353 10.8198 3.28215 7.16476 5.39303Z" fill="#80EC6E"/>
<path d="M24.8864 30.0816L7.37583 5.63853" stroke="#B7FF9E"/>
<path d="M24.2667 31.2318C24.1375 31.2269 23.9935 31.1403 23.8471 31.1506C23.7701 31.156 23.7296 31.0882 23.6568 31.1117C23.5867 31.1345 23.5665 31.21 23.471 31.2355C23.369 31.2627 23.2889 31.1899 23.1184 31.2018C22.9074 31.2167 22.7851 31.1234 22.6037 31.1274C22.482 31.13 22.2313 31.0973 22.1504 31.0209C21.9932 30.8724 21.4796 31.1717 21.3228 31.0237C21.2228 30.9294 21.0932 30.7521 20.9457 30.7428C20.5921 30.7206 20.0354 30.5999 19.8651 30.3177C19.7585 30.141 19.5563 29.9785 19.4061 29.8274C19.3719 29.793 19.2519 29.6464 19.2558 29.7027C19.2661 29.849 18.8394 29.9818 18.7103 29.8947C18.4098 29.692 18.1287 29.371 17.7858 29.1727C17.4042 28.9522 16.7948 28.5231 16.6065 28.149C16.5109 27.9592 15.9291 27.9614 15.701 27.8499C15.5763 27.7889 15.546 27.6385 15.4045 27.5572C15.3366 27.5182 14.7471 27.3036 14.7674 27.2515C14.8584 27.0186 14.596 26.5047 14.3121 26.4105C14.0846 26.3351 13.7213 26.4552 13.4733 26.4572C13.2282 26.4592 12.8365 26.2558 12.8208 26.0327C12.8149 25.9485 12.8565 25.9237 12.8687 25.8572C12.9159 25.598 12.6201 25.2999 12.5032 25.0867C12.49 25.0626 12.2188 24.5729 12.2191 24.7194C12.2194 24.838 12.1876 24.8323 12.0508 24.8419C11.5613 24.8763 11.6295 24.025 11.3274 23.8107C11.2349 23.7451 11.1922 23.9047 11.2259 23.7256C11.2886 23.392 11.2677 23.0537 11.3426 22.7184C11.43 22.3273 10.788 22.6791 10.5958 22.8139C10.4843 22.8921 10.1248 23.0087 10.1096 22.7927C10.0884 22.4909 10.1189 22.4086 9.87516 22.2252C9.46173 21.914 9.40697 21.9445 9.3764 21.421C9.35736 21.0949 9.63682 20.2732 9.22104 20.1163C8.98842 20.0285 8.86949 20.0303 8.6148 20.0482C8.31894 20.069 8.64477 19.2474 8.38451 19.2375C8.19771 19.2304 7.64247 19.4017 7.62669 19.177C7.59526 18.7298 7.75544 18.2906 7.72393 17.8422C7.71154 17.6658 7.43089 17.7051 7.26875 17.7082C7.08956 17.7117 6.91404 17.5672 6.68683 17.5831" stroke="#80EC6E" stroke-width="3" stroke-linecap="round"/>
<path d="M6.77488 17.0237C6.76198 16.8401 6.74908 16.6566 6.73618 16.4731C6.72206 16.272 6.8045 15.3428 6.5877 15.2662" stroke="#80EC6E" stroke-width="3" stroke-linecap="round"/>
<path d="M6.59157 15.3213C6.45295 15.2169 6.15945 15.1175 6.06631 14.9955C6.03421 14.9534 6.14856 14.5464 6.15118 14.4915C6.15404 14.4315 6.26172 13.8302 6.13143 13.8074C5.98128 13.7811 5.85572 13.7488 5.71336 13.6984C5.50993 13.6266 5.52044 13.6718 5.50477 13.4487C5.48966 13.2337 5.46056 13.0161 5.4592 12.8003C5.45621 12.3285 6.11081 11.8827 5.62369 11.5161C5.49755 11.4212 5.48053 11.2913 5.47094 11.1549C5.4487 10.8384 5.33364 10.5545 5.22028 10.2565C5.18272 10.1577 5.03198 9.9345 5.06195 9.81571C5.08495 9.72477 5.22787 9.64235 5.2688 9.53682C5.43075 9.11914 5.5666 8.68465 5.74609 8.2737C5.80323 8.14295 5.74988 7.992 5.74854 7.85549C5.74425 7.4116 6.05817 6.89754 6.16006 6.46176C6.27886 5.95357 6.24316 5.29618 6.47605 4.8165C6.536 4.69304 6.63935 4.79073 6.68412 4.85721" stroke="#80EC6E" stroke-width="3" stroke-linecap="round"/>
<path d="M6.94919 5.00457C7.67919 4.95327 8.36766 5.16636 9.01851 4.74849C9.63734 4.3512 9.96093 4.96786 10.5304 5.01726C10.8771 5.04734 11.1059 5.08832 11.4613 5.07481C11.8254 5.06096 12.2669 5.36613 12.5743 5.50689C12.9038 5.65774 13.3926 5.81568 13.6572 6.01482C13.7957 6.11907 14.0333 6.184 14.1947 6.26291C14.3255 6.32689 14.38 6.25144 14.5149 6.18818C14.5946 6.1508 14.7228 5.9746 14.7251 6.00742C14.7332 6.12216 14.8907 6.22569 14.9996 6.28934C15.2841 6.45558 15.5247 6.82307 15.9 6.86853C16.1437 6.89806 16.4669 7.21203 16.6056 7.39377C16.6743 7.48376 17.0363 7.46749 17.1615 7.55147C17.3375 7.6695 17.4961 7.80545 17.6625 7.9343C18.0144 8.20698 18.4047 8.41425 18.7494 8.70019C18.8758 8.80511 18.8304 9.14918 18.8412 9.30238C18.8513 9.44589 18.6644 9.88042 18.9441 9.86076C19.2359 9.84026 19.574 10.0964 19.8324 10.2164C20.6585 10.6002 20.4405 11.1368 20.8913 11.7435C21.1895 12.1448 21.6681 12.4231 22.0462 12.772C22.3497 13.0521 22.4931 13.2411 22.5195 13.6179C22.5323 13.7996 22.7284 13.9381 22.9009 14.0092C23.2435 14.1503 23.6622 14.4724 23.686 14.8117C23.6983 14.9859 23.7067 15.1608 23.7228 15.3347C23.7588 15.7252 24.1276 15.8596 24.4599 16.0575C24.6736 16.1848 25.0193 16.3278 25.1444 16.5351C25.2087 16.6416 25.1943 16.7382 25.244 16.8447C25.4198 17.2216 25.9159 17.5445 25.9449 17.9574C25.9715 18.336 26.0959 18.6153 26.2701 18.9612C26.3412 19.1024 26.3527 19.2302 26.3634 19.382C26.372 19.5042 26.2513 19.599 26.2599 19.7212C26.2797 20.0037 26.1889 20.0862 26.4889 20.2615C26.7513 20.4149 26.9925 20.5925 27.2717 20.7291C27.4808 20.8313 27.2932 20.7273 27.2003 20.8201C27.0175 21.0031 26.9811 21.417 26.9713 21.6385C26.9611 21.8679 26.9581 22.1882 27.0358 22.4056C27.0471 22.4374 27.1589 22.6615 27.2153 22.645C27.2567 22.6329 26.8358 21.4556 26.8253 21.4244" stroke="#80EC6E" stroke-width="3" stroke-linecap="round"/>
<path d="M27.7821 22.3531C27.7575 22.0029 27.8946 23.0477 27.9192 23.3978C27.9485 23.8144 27.6566 24.1923 27.6858 24.607C27.7204 25.0997 27.6553 25.5615 27.7897 26.0352C27.9106 26.4614 28.0925 26.7702 28.1243 27.2228C28.1457 27.5274 27.959 27.9706 27.7486 28.2206C27.6223 28.3706 27.5639 28.566 27.4807 28.7374C27.3796 28.9457 27.5422 29.2596 27.4395 29.4596C27.3263 29.68 26.994 29.8422 26.7905 29.9909C26.6208 30.1147 26.3432 30.0839 26.2177 30.1971C26.0423 30.3553 25.1882 30.752 25.1592 30.3391" stroke="#80EC6E" stroke-width="3" stroke-linecap="round"/>
<path d="M27.2542 30.2472C27.1942 30.3633 27.1117 30.4434 27.0201 30.5403C26.9417 30.6233 26.9564 30.7408 26.8995 30.8377C26.7588 31.0776 26.7254 31.379 26.5566 31.5965C26.3531 31.8587 26.3543 32.579 26.355 32.8556C26.3557 33.1348 26.4354 32.9821 26.2916 32.8601C26.1606 32.7489 26.0706 32.5913 25.916 32.4992C25.6358 32.3322 25.316 32.149 25.0681 31.9624C25.0218 31.9275 24.6042 31.6865 24.6295 31.6612C24.7539 31.5368 24.9654 31.8069 25.0119 31.868C25.0791 31.956 25.2854 32.097 25.3872 32.1736C25.4995 32.2581 25.5568 32.3824 25.6771 32.4729C25.9202 32.6559 26.0514 33.0115 26.3461 33.1329C26.4255 33.1656 26.7678 33.8636 26.5992 33.6131" stroke="#80EC6E" stroke-width="3" stroke-linecap="round"/>
<path d="M25.6013 31.1933C25.7297 31.1982 25.996 31.3328 26.1238 31.3779" stroke="#80EC6E" stroke-width="3" stroke-linecap="round"/>
<path d="M24.3959 32.1633C24.1573 32.1801 23.5376 31.9728 23.4144 31.7897" stroke="#80EC6E" stroke-width="3" stroke-linecap="round"/>
<path d="M24.602 29.659C24.6575 29.9156 25.0753 30.0971 25.1647 30.3664C25.211 30.506 25.5502 30.9413 25.6848 31.0215C25.7864 31.082 25.7849 31.2481 25.8796 31.3275C26.0006 31.4288 26.1578 31.5204 26.2557 31.6453C26.4216 31.8567 26.6738 32.0474 26.8232 32.2694" stroke="#B7FF9E" stroke-linecap="round"/>
<path d="M24.8153 29.976C24.7559 29.6582 24.4373 29.3434 24.2426 29.0756C24.0014 28.7439 23.7198 28.4741 23.49 28.1325C23.349 27.9229 23.1918 27.7343 22.9765 27.5722C22.7737 27.4196 22.7145 26.898 22.492 26.8194" stroke="#B7FF9E" stroke-linecap="round"/>
<path d="M8.0274 6.75471C8.06114 7.23483 7.99921 7.5346 7.84495 7.98481C7.7114 8.37452 7.41715 8.94523 7.44496 9.34086C7.47934 9.83023 7.18411 10.2767 7.14824 10.7573C7.1062 11.3205 6.92115 11.8553 6.9607 12.4181" stroke="#B7FF9E" stroke-linecap="round"/>
<path d="M8.46711 6.6685C9.0721 6.62599 9.37852 6.87881 9.92035 7.00903C10.5242 7.15415 11.0713 7.34433 11.6182 7.60902C12.1249 7.85428 12.6462 8.03618 13.2168 8.10533C13.5489 8.1456 13.8711 8.35146 14.1664 8.4782C14.3368 8.55129 14.6981 8.62998 14.7918 8.76929" stroke="#B7FF9E" stroke-linecap="round"/>
<path d="M11.0463 10.7477C11.1128 11.6939 11.1155 12.6391 11.182 13.5847C11.2426 14.4474 11.1964 15.3768 11.4024 16.2189C11.4735 16.5094 11.5697 16.8627 11.7142 17.1315C11.7924 17.2768 11.958 17.3785 11.9696 17.5439" stroke="#B7FF9E" stroke-linecap="round"/>
<path d="M11.4057 11.3311C11.8275 11.3015 12.3302 11.3873 12.7387 11.4711C13.0519 11.5353 13.3873 11.481 13.6991 11.545C14.6638 11.7427 15.4192 12.4854 16.4099 12.6148C16.9504 12.6854 17.3696 12.825 17.8633 13.0076C18.155 13.1154 18.4006 13.2735 18.7089 13.3108C18.8623 13.3295 19.2497 13.5633 19.34 13.6815C19.3727 13.7243 19.7586 13.9533 19.6779 13.959" stroke="#B7FF9E" stroke-linecap="round"/>
<path d="M15.2972 16.8674C15.3363 17.4237 15.238 17.8494 15.0214 18.3807C14.7208 19.1184 14.4656 19.8506 14.3155 20.619C14.1366 21.5349 13.8987 22.3398 13.9639 23.2688" stroke="#B7FF9E" stroke-linecap="round"/>
<path d="M15.7045 17.2261C16.1275 17.1964 16.5809 17.1188 17.0018 17.1595C17.7061 17.2276 18.3996 17.4339 19.0893 17.5661C19.3625 17.6185 19.6283 17.607 19.9019 17.6504C20.8003 17.7931 21.6606 18.1493 22.5226 18.3946C22.7084 18.4474 22.9029 18.5398 23.1101 18.5992C23.3042 18.6548 23.518 18.7009 23.6834 18.8018C23.7742 18.8572 24.1368 18.958 24.1707 19.0411C24.2112 19.1401 24.1919 19.2916 24.1992 19.3957" stroke="#B7FF9E" stroke-linecap="round"/>
<path d="M19.3788 22.3903C19.4122 22.8662 19.4157 23.337 19.4187 23.8138C19.4235 24.5742 19.1957 25.3172 19.1888 26.0801C19.1866 26.3214 19.1246 26.563 19.1194 26.8043C19.115 27.0053 19.1976 27.1758 19.2192 27.369C19.2397 27.5527 19.2469 28.092 19.4643 28.1387" stroke="#B7FF9E" stroke-linecap="round"/>
<path d="M19.9723 22.6806C20.5304 22.6414 21.0326 22.583 21.5716 22.7343C22.558 23.0109 23.5685 23.2357 24.5284 23.5778C25.0062 23.748 25.4227 23.9714 25.8406 24.2264C25.8973 24.261 25.9875 24.3364 26.0513 24.356C26.2748 24.4248 26.4908 24.5101 26.6695 24.6446" stroke="#B7FF9E" stroke-linecap="round"/>
<path d="M22.6381 27.0857C22.7299 28.3928 22.2487 29.7 22.3425 31.035" stroke="#B7FF9E" stroke-linecap="round"/>
<path d="M22.9032 27.2331C23.6031 27.184 24.3384 27.1993 24.9966 27.4211C25.3711 27.5472 25.8235 27.6978 26.2208 27.7746C26.452 27.8193 26.7201 27.8263 26.8421 28.0076" stroke="#B7FF9E" stroke-linecap="round"/>
<path d="M26.9137 32.6504C26.8986 32.4367 26.8376 32.2097 26.9609 32.0138C27.039 31.8898 27.0216 31.5362 26.8363 31.5492" stroke="#80EC6E" stroke-linecap="round"/>
<path d="M26.7715 32.4391C26.7442 32.0506 26.7563 31.6655 26.242 31.7016C25.8639 31.7282 26.09 31.544 26.1254 31.3502C26.1792 31.0547 26.1649 31.0431 25.8119 31.0679C25.5315 31.0876 25.2412 31.1709 25.4178 30.8466C25.5121 30.6734 25.6065 30.5377 25.769 30.4069C25.7935 30.3872 25.931 30.2652 25.9025 30.2439C25.8397 30.1966 25.6249 30.6779 25.5999 30.7201C25.5123 30.8682 25.3116 31.2137 25.5697 31.1956C25.6654 31.1889 25.7808 31.0909 25.8527 31.145C25.9082 31.1868 25.8411 31.3564 25.9075 31.4208C26.0154 31.5256 26.4818 31.6599 26.398 31.8567C26.2675 32.1631 26.1037 32.0082 25.9012 31.8363C25.6395 31.6141 25.3575 31.399 25.0905 31.1739C24.9352 31.0429 24.6202 30.6594 24.5966 30.4893C24.5352 30.0462 25.5681 29.7801 25.3352 30.3268C25.2603 30.5027 25.0021 30.6976 25.149 30.3952C25.183 30.3251 25.3333 29.9074 25.4606 30.0966" stroke="#80EC6E" stroke-linecap="round"/>
</g>
<defs>
<clipPath id="clip0_61_3">
<rect width="31" height="34" fill="white" transform="translate(33.3071 33.9164) rotate(175.98)"/>
</clipPath>
</defs>
</svg>
